<?xml version="1.0" standalone="no"?>
<!DOCTYPE svg PUBLIC "-//W3C//DTD SVG 20010904//EN"
 "http://www.w3.org/TR/2001/REC-SVG-20010904/DTD/svg10.dtd">
<svg version="1.0" xmlns="http://www.w3.org/2000/svg"
 width="300.000000pt" height="369.000000pt" viewBox="0 0 300.000000 369.000000"
 preserveAspectRatio="xMidYMid meet">

<g transform="translate(0.000000,369.000000) scale(0.100000,-0.100000)"
fill="#000000" stroke="none">
<path d="M1928 3554 c-12 -11 -10 -21 8 -39 22 -22 15 -25 -29 -16 -20 5 -54
5 -74 1 -29 -7 -45 -4 -77 13 -34 18 -57 22 -136 22 -82 0 -105 -4 -165 -29
-161 -67 -295 -172 -405 -317 -57 -76 -140 -231 -140 -262 0 -8 11 -31 25 -51
14 -20 25 -41 25 -46 0 -5 -43 18 -96 51 -74 47 -103 60 -123 56 -24 -5 -35 7
-126 126 -55 72 -104 140 -110 151 -13 28 -63 76 -78 76 -7 0 -18 -5 -25 -12
-9 -9 -16 -7 -32 10 -12 13 -33 22 -50 22 -35 0 -88 -43 -106 -86 -16 -37 -25
-45 -68 -53 -34 -7 -47 -41 -26 -67 13 -15 50 -20 50 -6 0 5 12 14 27 21 26
12 30 10 79 -43 29 -31 61 -56 72 -56 10 0 36 11 56 25 20 14 38 25 40 25 2 0
34 -41 71 -91 l68 -90 -32 -33 c-47 -49 -50 -91 -10 -139 28 -34 36 -38 62
-33 26 5 28 4 17 -9 -8 -10 -12 -39 -11 -75 1 -33 -4 -68 -10 -78 -18 -29 -3
-65 53 -127 41 -45 56 -56 75 -52 19 3 30 -4 53 -39 17 -23 36 -48 42 -56 24
-24 69 -99 66 -108 -2 -5 -25 -24 -53 -43 -56 -38 -80 -92 -55 -121 13 -17 50
-22 50 -7 0 12 62 51 72 45 4 -3 35 -46 69 -97 l60 -92 -39 -165 c-82 -341
-85 -359 -68 -440 21 -97 44 -142 80 -155 16 -5 42 -22 57 -37 15 -16 37 -28
49 -28 12 0 33 -14 47 -31 34 -40 76 -38 81 4 3 23 -12 103 -34 178 -3 13 6
15 56 15 40 -1 60 -5 60 -13 0 -32 -65 -317 -97 -425 -61 -207 -72 -251 -72
-304 -1 -27 3 -54 9 -60 6 -6 3 -24 -11 -51 -17 -35 -19 -47 -9 -82 26 -96 88
-121 189 -76 64 29 131 92 131 123 0 11 14 25 33 34 67 32 134 167 227 456 39
119 56 160 64 152 7 -7 11 -99 11 -288 0 -319 1 -326 74 -350 31 -10 49 -12
60 -5 12 8 26 6 51 -7 120 -61 326 -68 371 -14 12 15 8 22 -29 55 -24 20 -67
48 -97 60 -40 16 -54 27 -50 38 13 45 76 328 90 406 9 50 20 184 25 300 8 176
7 221 -6 280 -9 38 -17 90 -19 115 -5 54 -21 175 -44 327 l-17 112 50 5 c347
32 485 74 580 176 119 127 75 320 -117 513 -43 44 -95 102 -116 131 -21 28
-61 76 -89 107 l-51 56 20 59 c25 71 21 98 -31 201 -69 137 -182 242 -344 319
-75 36 -163 54 -178 38z m-1537 -453 c-17 -30 -51 -28 -51 4 0 30 29 49 48 31
11 -11 11 -18 3 -35z m1662 -44 c32 -21 79 -103 107 -187 44 -131 22 -291 -56
-407 -60 -88 -168 -153 -257 -153 -30 0 -46 -4 -42 -10 3 -5 17 -10 31 -10 13
0 24 -5 24 -11 0 -18 -101 -4 -148 20 -38 20 -82 64 -82 83 0 5 9 4 19 -2 23
-12 51 -13 51 -2 -1 4 -21 20 -47 36 -25 16 -64 53 -87 83 -29 37 -48 53 -64
53 -36 0 -62 19 -78 55 -14 35 -7 76 16 90 8 5 8 10 0 20 -15 18 -1 43 52 101
27 29 35 44 25 44 -17 0 -87 -77 -87 -96 0 -7 -4 -16 -10 -19 -7 -4 -7 3 0 20
17 45 31 67 72 111 38 41 36 60 -2 32 -9 -7 6 8 34 34 59 55 155 104 240 124
82 19 255 13 289 -9z m255 -99 c21 -47 103 -129 110 -110 2 7 -19 33 -47 58
-57 51 -62 64 -28 64 46 0 173 -117 244 -224 26 -39 30 -51 23 -81 -11 -49
-36 -84 -66 -91 -41 -10 -106 5 -157 38 -44 28 -157 142 -157 159 0 37 91 -27
111 -78 5 -14 12 -24 15 -21 11 12 -20 66 -65 113 -92 95 -123 165 -87 195 12
9 19 3 40 -37 26 -50 105 -146 106 -128 0 6 -25 43 -55 84 -44 58 -53 76 -44
87 20 24 37 15 57 -28z m-1202 -261 c355 -222 378 -240 624 -486 261 -261 415
-479 494 -699 37 -104 32 -121 -9 -28 -114 262 -384 589 -716 868 -30 26 -66
53 -80 60 -40 21 -386 232 -508 310 -63 40 -122 84 -132 98 -23 33 -34 94 -16
87 7 -3 162 -97 343 -210z m322 118 c-6 -14 -13 -23 -15 -21 -5 5 15 46 22 46
3 0 -1 -11 -7 -25z m-790 -33 c2 -13 -4 -25 -18 -32 -38 -20 -54 8 -23 42 20
23 37 19 41 -10z m541 12 c30 -2 82 -16 116 -29 34 -14 68 -25 76 -25 21 0 43
-40 30 -53 -6 -6 -11 -28 -11 -49 0 -47 47 -105 93 -113 39 -8 77 -52 53 -61
-8 -3 -37 11 -68 34 -29 22 -145 97 -258 167 -113 70 -209 131 -215 137 -9 9
24 7 184 -8z m-472 -60 c2 -6 -13 -18 -33 -27 l-36 -18 23 30 c24 29 40 34 46
15z m123 1 c10 -12 9 -16 -5 -21 -19 -8 -40 9 -31 25 10 15 21 14 36 -4z
m1572 -163 c41 -21 42 -22 59 -104 9 -46 15 -85 13 -87 -3 -3 -161 34 -296 70
l-37 9 23 53 c26 59 46 141 46 193 l0 34 75 -74 c41 -40 93 -83 117 -94z
m-1488 103 c32 -41 28 -58 -6 -29 -13 10 -17 12 -10 4 10 -12 -3 -22 -85 -65
l-98 -50 1 -68 c1 -60 -1 -66 -14 -53 -10 10 -17 42 -20 94 -4 73 -3 80 18 95
20 14 25 14 37 1 20 -20 26 -18 20 9 -8 31 38 55 63 32 19 -17 35 -8 19 11
-15 18 23 38 42 21 8 -7 7 -3 -2 8 -9 11 -19 26 -24 33 -16 28 32 -7 59 -43z
m-145 31 c10 -12 7 -18 -17 -30 -16 -8 -32 -12 -36 -9 -12 13 -5 30 17 41 12
6 23 11 23 11 1 1 7 -5 13 -13z m-75 -45 c3 -5 -5 -16 -19 -25 -22 -15 -25
-24 -26 -84 l-2 -67 -8 79 c-9 84 -2 106 32 106 10 0 20 -4 23 -9z m275 -55
c-19 -17 -182 -116 -186 -113 -2 3 20 22 49 43 29 21 68 51 87 67 23 20 37 25
44 18 6 -6 9 -12 6 -15z m141 -43 l35 -23 -35 0 c-26 0 -43 9 -72 37 -69 67
-42 62 72 -14z m-94 1 c13 -19 9 -23 -97 -79 -118 -63 -144 -89 -121 -126 18
-28 15 -46 -4 -27 -9 9 -19 38 -21 65 -6 57 3 68 119 144 78 51 103 56 124 23z
m-346 -136 c-1 -21 -50 45 -50 67 0 15 6 11 25 -17 14 -20 25 -43 25 -50z
m511 32 c19 0 49 -41 49 -67 l0 -26 -26 24 c-14 13 -35 37 -47 53 -18 26 -19
29 -3 23 10 -4 22 -7 27 -7z m-51 -26 c21 -21 22 -27 10 -34 -8 -5 -28 -10
-43 -10 -34 0 -86 -26 -152 -77 -38 -30 -51 -47 -56 -73 l-6 -35 -12 29 c-6
17 -11 48 -9 70 3 40 3 40 113 98 61 32 115 58 121 58 6 0 21 -11 34 -26z
m243 -28 c24 -15 22 -20 -19 -51 -33 -25 -37 -26 -52 -12 -9 10 -16 37 -18 67
l-3 51 37 -23 c20 -12 45 -27 55 -32z m211 8 c10 -37 0 -41 -29 -14 -31 29
-32 40 -1 40 17 0 26 -7 30 -26z m-855 -41 c2 -2 -3 -3 -11 -3 -9 0 -19 7 -22
16 -6 15 -4 15 11 3 10 -7 20 -15 22 -16z m1330 -100 c-17 -34 -39 -58 -75
-82 l-51 -33 23 -91 c13 -50 22 -93 20 -94 -2 -2 -21 18 -42 44 -21 27 -78 89
-126 140 -48 50 -88 94 -88 96 0 3 15 1 32 -4 82 -23 167 -4 207 47 13 16 41
41 64 55 l42 26 9 -28 c7 -22 3 -39 -15 -76z m-409 -78 c21 -25 -5 -17 -56 18
-45 30 -94 87 -94 110 0 9 124 -97 150 -128z m-785 -144 c-3 -6 -21 -18 -38
-27 l-32 -15 33 31 c32 29 53 35 37 11z m1085 -179 c72 -89 80 -112 80 -239 0
-89 11 -98 79 -64 l38 20 34 -71 34 -70 -40 -35 c-55 -47 -182 -107 -285 -134
-175 -45 -396 -21 -493 53 -17 13 -17 22 -8 118 6 57 13 105 15 107 2 2 19 -5
37 -17 77 -47 280 -85 354 -66 l28 7 -6 157 c-6 136 -23 306 -42 407 -5 28 -2
26 51 -30 31 -33 87 -97 124 -143z m-944 72 c55 -89 53 -113 -2 -27 -21 32
-52 76 -68 97 l-30 39 26 -17 c15 -10 48 -51 74 -92z m8 36 c48 -73 51 -80 37
-80 -10 0 -91 125 -91 141 0 17 7 9 54 -61z m1214 -386 l2 -39 -15 34 c-18 41
-19 54 -2 49 6 -3 13 -22 15 -44z m-889 -112 c20 -32 30 -58 28 -80 -1 -18 -5
-32 -9 -32 -9 0 -81 120 -75 126 2 3 19 -18 37 -46 18 -27 34 -50 37 -50 4 0
-16 35 -54 96 -11 17 -9 34 3 34 1 0 16 -22 33 -48z m-30 -92 c37 -56 40 -64
34 -110 -3 -28 -7 -50 -8 -50 -12 0 -85 43 -98 58 -18 20 -18 23 4 91 13 39
24 71 25 71 1 0 20 -27 43 -60z m948 -12 c-3 -8 -6 -5 -6 6 -1 11 2 17 5 13 3
-3 4 -12 1 -19z m-1194 -83 c20 -8 61 -15 90 -15 41 0 58 -5 72 -20 9 -10 33
-24 51 -30 48 -16 45 -40 -5 -40 -22 0 -52 5 -67 10 -15 6 -29 8 -32 5 -3 -3
4 -47 16 -98 24 -99 27 -137 13 -137 -19 0 -52 54 -83 139 -24 62 -34 79 -36
61 -1 -14 6 -51 17 -82 16 -47 17 -58 6 -58 -21 0 -60 57 -81 118 -10 28 -22
52 -27 52 -8 0 -1 -36 15 -79 10 -29 4 -38 -16 -22 -37 31 -66 209 -44 264 7
16 12 15 42 -17 18 -20 49 -43 69 -51z"/>
<path d="M1994 3025 c-9 -23 5 -35 42 -35 44 0 43 12 -1 33 -31 15 -36 15 -41
2z"/>
<path d="M1686 2999 c-40 -47 -35 -66 12 -38 53 32 57 36 42 54 -18 21 -25 19
-54 -16z"/>
<path d="M2030 2900 c-8 -15 -8 -27 2 -48 15 -31 26 -34 42 -10 12 19 -2 69
-21 75 -6 2 -17 -5 -23 -17z"/>
<path d="M1890 2894 c0 -11 16 -47 36 -79 32 -54 34 -62 22 -85 -7 -14 -14
-28 -16 -32 -10 -21 38 -5 52 17 23 34 20 46 -17 91 -18 21 -43 55 -55 74 -17
28 -22 31 -22 14z"/>
<path d="M1727 2893 c-12 -11 -8 -58 6 -78 19 -25 37 -11 37 29 0 41 -24 68
-43 49z"/>
<path d="M1485 2779 c-14 -17 -24 -34 -21 -37 6 -5 66 49 66 60 0 17 -20 6
-45 -23z"/>
<path d="M1501 2731 c-14 -25 -1 -35 15 -13 16 20 17 32 4 32 -5 0 -14 -8 -19
-19z"/>
<path d="M2088 2648 c-5 -35 -66 -50 -187 -46 -79 3 -106 7 -115 19 -17 24
-78 32 -101 14 -20 -14 -20 -14 1 -15 11 0 40 -10 65 -22 33 -16 68 -23 139
-26 108 -5 166 7 208 43 17 14 35 25 41 25 6 0 11 7 11 15 0 10 -10 15 -29 15
-23 0 -30 -5 -33 -22z"/>
<path d="M1980 2534 c-8 -9 -33 -14 -69 -15 -66 -1 -43 -17 25 -18 47 -1 101
31 71 42 -8 3 -21 -1 -27 -9z"/>
<path d="M2370 2775 c-17 -20 -4 -38 20 -25 10 5 30 10 44 10 16 0 26 6 26 15
0 20 -73 20 -90 0z"/>
</g>
</svg>
