<?xml version="1.0" standalone="no"?>
<!DOCTYPE svg PUBLIC "-//W3C//DTD SVG 20010904//EN"
 "http://www.w3.org/TR/2001/REC-SVG-20010904/DTD/svg10.dtd">
<svg version="1.0" xmlns="http://www.w3.org/2000/svg"
 width="342.000000pt" height="469.000000pt" viewBox="0 0 342.000000 469.000000"
 preserveAspectRatio="xMidYMid meet">

<g transform="translate(0.000000,469.000000) scale(0.100000,-0.100000)"
fill="#000000" stroke="none">
<path d="M650 4660 c27 -39 34 -39 12 0 -9 16 -21 30 -25 30 -5 0 1 -13 13
-30z"/>
<path d="M3343 4679 c10 -6 31 -29 47 -51 l30 -41 0 51 0 52 -47 0 c-38 -1
-44 -3 -30 -11z"/>
<path d="M738 4633 c23 -2 61 -2 85 0 23 2 4 4 -43 4 -47 0 -66 -2 -42 -4z"/>
<path d="M1323 4633 c196 -2 518 -2 715 0 196 1 35 2 -358 2 -393 0 -554 -1
-357 -2z"/>
<path d="M2933 4633 c37 -2 96 -2 130 0 34 2 4 3 -68 3 -71 0 -99 -1 -62 -3z"/>
<path d="M3198 4633 c12 -2 30 -2 40 0 9 3 -1 5 -23 4 -22 0 -30 -2 -17 -4z"/>
<path d="M3260 4623 c0 -5 16 -18 35 -30 19 -13 44 -40 55 -60 19 -34 20 -35
15 -10 -6 32 -63 99 -76 91 -5 -3 -9 0 -9 5 0 6 -4 11 -10 11 -5 0 -10 -3 -10
-7z"/>
<path d="M194 4551 c-2 -2 -4 -12 -4 -22 0 -13 9 -19 33 -21 17 -2 31 -6 30
-10 -2 -5 -3 -73 -3 -153 l0 -145 -23 0 c-30 0 -36 -6 -30 -31 6 -21 29 -23
121 -13 42 6 52 10 52 25 0 15 -7 19 -32 19 l-31 0 7 180 6 180 -61 -2 c-33
-2 -63 -5 -65 -7z"/>
<path d="M2092 4440 c0 -19 2 -27 5 -17 2 9 2 25 0 35 -3 9 -5 1 -5 -18z"/>
<path d="M1891 4444 c0 -11 3 -14 6 -6 3 7 2 16 -1 19 -3 4 -6 -2 -5 -13z"/>
<path d="M1062 4430 c0 -14 2 -19 5 -12 2 6 2 18 0 25 -3 6 -5 1 -5 -13z"/>
<path d="M971 4424 c0 -11 3 -14 6 -6 3 7 2 16 -1 19 -3 4 -6 -2 -5 -13z"/>
<path d="M1521 4424 c0 -11 3 -14 6 -6 3 7 2 16 -1 19 -3 4 -6 -2 -5 -13z"/>
<path d="M2283 4360 c0 -47 2 -66 4 -42 2 23 2 61 0 85 -2 23 -4 4 -4 -43z"/>
<path d="M1132 4405 c0 -16 2 -22 5 -12 2 9 2 23 0 30 -3 6 -5 -1 -5 -18z"/>
<path d="M1711 4358 c0 -43 2 -78 7 -78 4 0 6 24 4 52 -5 95 -9 104 -11 26z"/>
<path d="M2093 4320 c0 -25 2 -35 4 -22 2 12 2 32 0 45 -2 12 -4 2 -4 -23z"/>
<path d="M2542 4290 c0 -14 2 -19 5 -12 2 6 2 18 0 25 -3 6 -5 1 -5 -13z"/>
<path d="M1010 4275 c0 -14 4 -25 9 -25 4 0 6 11 3 25 -2 14 -6 25 -8 25 -2 0
-4 -11 -4 -25z"/>
<path d="M1891 4254 c0 -11 3 -14 6 -6 3 7 2 16 -1 19 -3 4 -6 -2 -5 -13z"/>
<path d="M1685 4028 c-11 -6 -35 -24 -53 -40 -27 -23 -42 -28 -83 -28 -56 0
-79 -10 -124 -51 -31 -29 -78 -39 -91 -18 -3 6 -1 22 7 35 18 35 5 40 -36 14
-52 -32 -69 -63 -68 -124 0 -28 -6 -64 -14 -80 -15 -30 -11 -89 9 -113 7 -9 2
-33 -18 -80 -27 -62 -29 -78 -29 -189 0 -87 4 -125 14 -137 11 -14 11 -18 -4
-23 -18 -7 -330 2 -525 15 -64 4 -129 4 -147 -1 -18 -5 -61 -31 -95 -59 l-63
-50 -45 51 c-38 43 -50 51 -74 48 -35 -4 -68 -45 -69 -83 0 -15 11 -41 23 -58
19 -24 21 -32 9 -36 -30 -9 -79 -69 -79 -96 0 -15 -11 -40 -25 -57 -27 -32
-26 -56 4 -113 8 -16 21 -46 26 -65 l11 -35 7 41 c8 51 45 70 173 91 34 5 58
-15 48 -40 -5 -14 -66 -49 -107 -61 -10 -4 -17 -12 -14 -19 4 -13 31 -14 59
-2 13 5 19 1 24 -20 3 -14 4 -28 2 -30 -2 -3 -36 -7 -74 -11 -69 -6 -71 -6
-92 21 -16 20 -22 23 -22 11 0 -9 12 -29 26 -43 25 -25 29 -25 107 -19 66 5
86 3 104 -9 51 -36 106 -45 322 -55 269 -12 311 -17 318 -39 9 -23 23 -31 58
-31 74 -1 74 1 54 -113 -27 -158 -52 -478 -47 -604 l4 -113 -458 0 c-488 0
-491 0 -515 -48 -4 -9 -10 -134 -13 -277 l-5 -260 -27 -3 c-34 -4 -58 -36 -58
-78 0 -23 5 -33 20 -37 17 -4 22 0 27 24 8 40 21 46 33 14 7 -19 6 -35 -5 -61
-16 -40 -40 -52 -66 -36 -24 16 -29 15 -29 -3 0 -8 11 -17 25 -21 33 -8 32
-23 -1 -16 -20 4 -25 1 -22 -9 4 -10 20 -13 57 -12 l51 2 0 -293 c0 -182 4
-305 11 -324 23 -66 -84 -62 1599 -62 1101 0 1527 3 1543 11 51 26 57 45 57
191 0 109 3 139 14 145 12 7 15 42 16 178 2 165 -2 205 -21 205 -5 0 -9 153
-9 354 l0 355 -24 28 -24 28 -600 3 -600 2 -10 43 c-6 23 -20 100 -32 170 -18
106 -20 130 -9 143 11 14 10 18 -5 30 -15 11 -19 32 -24 126 -6 123 -3 298 5
311 3 5 17 -2 32 -16 31 -28 115 -80 168 -103 65 -28 190 -42 251 -29 86 20
187 106 212 179 12 36 25 46 32 24 5 -15 28 -1 28 18 0 21 29 74 40 74 5 0 14
-19 21 -42 15 -59 42 -108 74 -138 21 -20 37 -25 80 -25 44 0 59 5 92 31 32
26 71 80 87 119 2 6 20 -9 41 -32 46 -54 79 -57 130 -12 19 17 35 36 35 41 0
14 -62 2 -71 -13 -12 -20 -28 0 -46 58 -13 41 -26 61 -48 75 -65 39 -119 15
-129 -58 -12 -90 -25 -123 -55 -139 -37 -19 -45 -9 -67 76 -21 83 -36 107 -87
130 -55 24 -88 24 -122 -2 -22 -18 -29 -20 -36 -8 -5 8 -7 20 -4 27 24 66 -5
282 -54 405 -45 115 -35 112 -347 114 -146 0 -268 3 -271 7 -3 3 2 13 12 22
13 14 16 29 12 68 -4 43 0 62 29 122 78 164 67 301 -33 405 -19 20 -49 58 -66
84 -25 37 -42 51 -76 62 -25 8 -61 28 -80 43 -45 35 -70 42 -96 28z m66 -43
c19 -14 61 -38 95 -54 48 -23 67 -39 93 -79 18 -28 39 -56 47 -63 21 -17 60
-96 68 -138 8 -44 -10 -146 -34 -191 -11 -19 -26 -51 -35 -70 -8 -19 -19 -42
-24 -51 -5 -9 -5 -22 0 -30 16 -25 9 -67 -14 -95 l-24 -27 -91 13 -91 13 6 65
c6 62 5 65 -13 57 -94 -41 -165 -57 -259 -58 -108 -1 -140 8 -186 57 -26 28
-39 33 -39 15 0 -15 59 -69 76 -69 9 0 14 -12 14 -35 0 -19 5 -35 10 -35 6 0
10 11 10 25 0 26 7 29 34 19 22 -8 23 -94 1 -94 -8 0 -23 9 -32 20 -10 11 -23
20 -30 20 -8 0 -19 12 -26 28 -12 27 -37 59 -37 47 0 -3 7 -22 15 -42 19 -45
19 -43 -10 -43 -33 0 -55 52 -62 150 -7 98 14 182 71 280 32 55 50 76 70 81
15 4 49 28 76 53 54 50 68 54 110 29 25 -14 36 -15 80 -5 58 14 75 8 127 -40
30 -29 35 -30 88 -23 44 5 62 3 81 -9 40 -27 30 -74 -24 -106 -15 -9 -13 -14
19 -43 47 -41 72 -91 65 -126 -6 -25 -6 -25 9 -7 8 11 15 25 15 30 0 15 -37
76 -63 104 l-21 22 33 34 c28 29 32 39 26 63 -15 60 -52 78 -126 61 l-51 -12
-45 52 c-25 29 -52 52 -61 52 -9 0 -40 -10 -69 -22 -49 -20 -53 -20 -77 -5
-43 28 -71 21 -131 -33 -83 -75 -140 -64 -152 29 -5 36 11 101 25 101 2 0 15
-11 28 -25 30 -33 68 -32 113 2 20 15 38 30 41 33 19 25 54 32 97 19 l46 -12
43 46 c24 26 47 47 52 47 5 0 24 -11 43 -25z m-461 -270 c10 -12 8 -21 -10
-51 -24 -38 -40 -33 -40 13 0 49 25 69 50 38z m430 -423 c0 -5 -16 -27 -35
-49 -33 -39 -93 -75 -149 -89 -25 -6 -26 -5 -26 45 0 49 1 51 28 52 15 1 30 1
34 0 4 0 23 6 43 15 21 8 40 13 42 10 3 -3 15 1 27 9 23 17 36 19 36 7z m-222
-95 l3 -48 -33 3 c-32 3 -33 5 -36 51 l-3 48 33 -3 c32 -3 33 -5 36 -51z m302
-42 c8 -6 96 -11 195 -11 99 -1 231 -2 293 -3 l113 -1 -26 -34 c-15 -19 -34
-35 -43 -35 -9 0 -73 0 -140 0 -68 -1 -131 3 -140 8 -10 6 36 8 126 6 84 -2
144 1 148 7 9 15 4 16 -89 20 -49 1 -91 7 -94 12 -3 4 -9 2 -13 -5 -6 -8 -30
-12 -74 -10 -41 1 -66 -2 -66 -8 0 -6 -7 -11 -15 -11 -8 0 -15 -4 -15 -10 0
-5 -18 -10 -39 -10 -36 0 -40 3 -46 30 -6 29 -35 43 -35 17 0 -11 -11 -12 -53
-5 -42 7 -58 6 -82 -7 l-30 -16 32 6 c18 4 38 3 45 -2 7 -4 24 -9 38 -11 48
-6 30 -9 -67 -10 -54 0 -142 -2 -196 -5 -54 -2 -100 -1 -102 4 -3 4 -13 5 -24
2 -12 -3 -20 2 -24 15 -4 18 -15 21 -98 26 -52 3 -125 8 -164 10 -46 4 -63 3
-50 -3 27 -13 -130 -13 -250 0 -49 5 -145 10 -211 11 -67 2 -120 6 -118 10 15
24 204 38 204 15 0 -4 8 -4 18 1 9 4 159 4 332 0 288 -8 317 -10 341 -28 33
-23 52 -28 153 -35 80 -5 80 -5 57 14 -25 22 -16 32 29 33 16 1 27 5 23 11 -3
5 -1 12 5 16 15 9 133 -2 152 -14z m-1484 -30 c33 -40 36 -48 26 -70 -16 -35
-69 -34 -111 1 -34 29 -39 58 -15 92 25 36 58 28 100 -23z m2222 -8 c24 -25
58 -114 48 -124 -3 -4 -6 1 -6 10 0 10 -4 17 -10 17 -17 0 -11 -22 11 -46 32
-35 54 -243 22 -211 -3 4 -7 44 -8 89 -2 87 -10 122 -27 112 -6 -4 -14 -1 -18
6 -7 11 -14 10 -37 -5 -15 -10 -33 -26 -40 -34 -10 -13 -12 -10 -13 21 0 20 5
40 10 43 6 3 10 14 10 23 0 33 -22 -5 -34 -59 -11 -54 -37 -74 -44 -36 -2 9 1
17 7 17 6 0 11 11 11 24 0 13 7 43 15 66 18 50 18 50 6 50 -5 0 -12 -12 -15
-27 -15 -67 -31 -113 -38 -113 -4 0 -5 15 -2 33 4 24 3 28 -5 17 -14 -19 -14
-60 -1 -60 6 0 10 -4 10 -9 0 -4 -11 -6 -24 -4 -24 5 -24 6 -11 49 14 48 71
155 89 166 23 16 73 8 94 -15z m-1893 -36 c5 -4 127 -7 271 -5 143 1 303 -1
355 -5 83 -7 87 -8 32 -10 -58 -1 -86 -12 -64 -25 16 -10 365 -8 405 3 22 5
43 8 47 5 4 -2 9 1 11 7 3 8 10 9 23 2 43 -22 82 -28 130 -21 28 4 61 5 75 2
14 -4 34 -8 45 -9 11 -1 45 -5 76 -9 38 -6 59 -4 63 3 4 6 1 11 -6 12 -7 1 -2
4 12 8 14 5 33 4 42 -1 9 -4 49 -8 89 -8 69 0 71 -1 65 -22 -3 -13 -6 -31 -6
-40 0 -12 -8 -18 -22 -17 -13 0 -96 -3 -185 -7 -129 -6 -163 -4 -163 6 0 6 -6
10 -13 7 -7 -3 -29 2 -48 11 -18 8 -39 16 -45 17 -34 8 -54 17 -54 26 0 6 -5
7 -11 3 -7 -4 -50 -6 -96 -5 -56 2 -90 -2 -100 -10 -21 -18 -258 -26 -277 -10
-10 8 -21 8 -40 1 -36 -13 -72 -13 -98 1 -21 11 -21 12 -3 25 17 12 11 14 -51
14 -48 0 -64 -3 -54 -10 8 -5 30 -10 48 -10 18 0 31 -4 28 -9 -4 -5 0 -12 6
-14 8 -4 7 -6 -4 -6 -9 -1 -20 4 -23 10 -5 6 -12 4 -22 -8 -10 -13 -16 -15
-19 -5 -9 19 -24 14 -24 -8 0 -11 4 -20 8 -20 5 0 7 -20 5 -45 -4 -36 -2 -45
10 -45 11 0 15 9 13 34 -3 37 6 46 50 46 14 0 24 -6 24 -15 0 -16 14 -19 199
-36 73 -7 138 -18 145 -24 6 -7 18 -15 26 -18 8 -4 -3 -4 -25 0 -22 3 -42 9
-45 12 -3 3 -18 6 -35 7 -16 1 -41 3 -54 5 -27 4 -42 -18 -17 -26 49 -16 51
-18 21 -25 -41 -10 -285 -11 -614 -3 -221 5 -271 9 -267 20 3 7 1 13 -5 13 -5
0 -12 -7 -15 -15 -4 -10 -21 -15 -54 -15 l-49 0 6 38 c3 20 7 39 9 41 1 1 107
4 233 5 181 1 230 -2 226 -11 -2 -7 0 -13 5 -13 6 0 10 7 10 16 0 10 6 14 18
10 9 -3 37 -6 62 -8 34 -2 45 1 45 12 0 9 -10 15 -25 15 -14 1 -43 4 -65 8
-22 3 -101 9 -175 12 -74 3 -142 8 -151 10 -9 3 -32 -1 -52 -10 -20 -8 -57
-15 -82 -15 -44 0 -45 1 -39 28 8 35 32 54 58 45 28 -9 263 -9 272 0 17 17 12
18 -203 32 -57 4 -103 11 -103 16 0 5 6 18 13 29 11 19 19 20 112 14 55 -3
104 -9 110 -13z m1212 -17 c-3 -3 -12 -4 -19 -1 -8 3 -5 6 6 6 11 1 17 -2 13
-5z m180 -10 c-3 -3 -12 -4 -19 -1 -8 3 -5 6 6 6 11 1 17 -2 13 -5z m40 -10
c-3 -3 -12 -4 -19 -1 -8 3 -5 6 6 6 11 1 17 -2 13 -5z m-1719 -71 c-3 -25 -7
-28 -43 -29 -22 0 -66 -11 -98 -23 -66 -26 -78 -25 -66 6 16 42 80 70 167 72
42 1 43 0 40 -26z m1452 -16 c25 -12 47 -21 50 -22 3 0 21 -6 40 -12 19 -7 45
-13 57 -15 44 -6 8 -26 -57 -31 -36 -3 -83 -10 -105 -16 -37 -10 -183 -16
-174 -7 2 2 38 7 79 10 41 4 89 9 107 12 29 6 31 8 22 33 -12 34 -64 61 -122
62 -39 1 -40 2 -12 9 35 9 54 5 115 -23z m-220 18 c0 -2 -13 -11 -29 -19 -34
-18 -40 -62 -10 -71 11 -4 19 -11 19 -16 0 -11 -10 -6 -52 25 -26 18 -101 28
-300 40 -14 0 -30 4 -34 9 -4 4 60 4 142 1 134 -6 154 -4 204 14 30 11 56 21
58 21 1 1 2 -1 2 -4z m200 -60 c0 -11 -20 -25 -36 -25 -2 0 -4 11 -4 24 0 19
4 23 20 19 11 -3 20 -11 20 -18z m-195 -23 c-8 -8 -25 10 -25 26 0 13 2 13 14
-4 8 -10 13 -21 11 -22z m125 28 c0 -5 -4 -10 -10 -10 -5 0 -10 5 -10 10 0 6
5 10 10 10 6 0 10 -4 10 -10z m855 -10 c3 -10 1 -37 -6 -59 -12 -41 -12 -43
40 -138 45 -83 60 -160 42 -216 -15 -43 -66 -90 -116 -107 -74 -24 -165 10
-180 67 -11 47 -32 70 -108 122 -39 27 -85 63 -101 79 -32 34 -30 62 4 62 27
0 170 -48 188 -62 7 -6 16 -8 19 -4 17 16 -19 42 -100 72 -48 18 -94 38 -102
44 -24 20 -18 49 10 56 54 14 137 -14 233 -77 30 -20 32 -20 32 -2 0 29 -142
111 -194 113 -16 0 -17 2 -5 16 11 14 26 15 84 11 95 -8 133 -23 180 -68 23
-22 44 -39 48 -39 7 0 -2 31 -12 40 -3 3 -18 19 -33 36 -26 28 -27 31 -12 52
20 29 80 31 89 2z m-345 6 c0 -9 -40 -13 -46 -5 -3 5 6 9 20 9 14 0 26 -2 26
-4z m-1892 -37 c4 -36 -34 -65 -102 -79 -29 -6 -62 -17 -72 -25 -28 -21 -39
-18 -53 11 -18 40 3 62 89 95 94 35 134 35 138 -2z m1775 24 c-13 -2 -33 -2
-45 0 -13 2 -3 4 22 4 25 0 35 -2 23 -4z m-466 -29 c-3 -3 -12 -4 -19 -1 -8 3
-5 6 6 6 11 1 17 -2 13 -5z m506 -11 c-7 -2 -19 -2 -25 0 -7 3 -2 5 12 5 14 0
19 -2 13 -5z m-70 -19 c84 -14 27 -24 -140 -24 -97 0 -173 3 -170 7 4 3 62 9
130 13 67 4 127 7 132 8 6 1 27 -1 48 -4z m-534 -43 c9 -5 140 -12 291 -16
151 -4 278 -9 281 -11 4 -2 -1 -19 -10 -39 -15 -32 -19 -34 -66 -35 -30 0 -45
4 -37 9 8 4 -48 10 -130 14 -78 3 -144 4 -147 1 -21 -21 81 -41 244 -48 129
-6 129 -6 137 -19 14 -22 9 -23 -69 -14 -141 15 -167 17 -293 23 -156 6 -196
12 -182 26 5 5 25 13 43 17 41 8 47 24 14 39 -20 9 -40 8 -93 -4 -44 -10 -85
-13 -119 -9 -46 6 -52 4 -47 -9 6 -17 21 -19 122 -17 44 0 62 -3 60 -11 -5
-13 -127 -12 -228 2 -92 13 -213 12 -268 -2 -46 -13 -45 -13 78 -20 242 -12
405 -28 429 -40 19 -10 25 -10 28 -1 2 7 10 10 16 7 7 -2 64 -5 128 -7 64 -1
123 -7 130 -13 8 -6 25 -9 39 -7 14 1 75 0 135 -3 95 -5 114 -9 139 -29 l28
-22 -26 0 c-15 0 -26 5 -26 13 0 16 -16 19 -25 5 -10 -17 -371 1 -407 20 -11
6 -22 8 -26 5 -3 -3 1 -6 9 -7 8 0 1 -5 -16 -10 -46 -14 -135 -1 -135 20 0 14
-17 19 -97 29 -54 6 -163 15 -243 18 -80 3 -161 7 -180 9 -19 1 -176 3 -347 4
-281 1 -313 3 -313 17 0 13 7 15 32 11 18 -2 41 -1 50 4 10 5 37 4 67 -3 43
-10 56 -9 90 6 40 18 77 13 50 -6 -11 -7 -9 -8 4 -4 10 3 26 6 36 6 25 0 24
37 -2 44 -40 11 -88 6 -104 -10 -9 -8 -22 -13 -30 -10 -8 3 -47 6 -88 6 -69 0
-73 1 -77 24 -4 21 0 25 26 30 17 3 117 4 221 1 105 -3 306 -7 449 -9 166 -3
262 -8 269 -15 14 -14 47 -14 47 -1 0 6 -14 19 -31 29 l-32 19 29 5 c39 7 153
-2 173 -12z m-724 -165 c72 -3 202 -9 290 -12 88 -4 202 -10 255 -14 83 -6 87
-7 32 -9 -44 -1 -61 -4 -56 -12 5 -9 -40 -11 -175 -7 -139 4 -181 2 -181 -8 0
-21 27 -24 196 -24 108 0 163 -3 159 -10 -3 -5 -4 -10 -1 -10 2 0 13 -3 23 -6
15 -5 16 -4 3 6 -12 9 -5 10 30 4 25 -4 113 -12 195 -19 l150 -12 -236 -2
c-190 -1 -239 -4 -255 -16 -13 -10 -44 -14 -96 -15 -71 0 -78 2 -78 20 0 24
-28 40 -70 40 -17 0 -29 3 -27 8 3 4 -77 8 -177 9 -190 3 -301 13 -351 33 -24
9 -27 13 -15 22 13 8 12 9 -2 5 -9 -3 -24 0 -35 8 -15 11 -16 14 -3 19 15 6
237 13 275 9 11 -1 79 -4 150 -7z m1990 -12 c31 -12 65 -63 65 -96 0 -7 8 -35
17 -61 19 -53 45 -67 84 -46 36 19 50 37 55 67 3 15 10 52 17 82 12 51 14 55
44 58 46 5 68 -11 82 -60 7 -24 19 -54 28 -66 8 -13 12 -26 9 -30 -7 -7 -66
48 -66 62 0 15 -31 46 -47 46 -7 0 -13 -9 -13 -20 0 -18 -17 -57 -30 -70 -3
-3 -11 -17 -17 -31 -7 -15 -30 -35 -57 -48 -83 -39 -130 -10 -172 105 -36 99
-48 108 -85 64 -16 -19 -29 -38 -29 -42 0 -19 -20 -6 -26 17 -12 47 44 101 90
88 11 -3 34 -11 51 -19z m-1302 -31 c-7 -2 -19 -2 -25 0 -7 3 -2 5 12 5 14 0
19 -2 13 -5z m-45 -30 c-10 -2 -28 -2 -40 0 -13 2 -5 4 17 4 22 1 32 -1 23 -4z
m332 -17 c14 -4 46 -3 72 2 26 5 70 6 98 1 29 -4 100 -11 159 -14 106 -6 171
-19 171 -35 0 -4 -8 -7 -17 -5 -15 3 -280 12 -463 16 -43 1 -49 3 -30 9 22 7
22 8 4 9 -11 1 -23 4 -27 7 -3 4 -50 6 -104 6 -54 -1 -116 2 -138 7 -27 5 9 7
105 6 80 -2 156 -6 170 -9z m-246 -183 c-16 -264 -16 -263 85 -263 108 0 218
30 322 87 7 4 28 -198 22 -210 -12 -21 -131 -68 -210 -82 -176 -31 -380 13
-536 115 -104 67 -105 69 -91 177 6 48 12 90 13 92 0 3 13 -7 29 -21 35 -33
137 -90 145 -81 4 3 7 34 8 67 0 34 6 95 12 136 l12 75 70 6 c39 3 83 6 98 7
l28 2 -7 -107z m412 66 c-3 -17 -6 -69 -6 -114 l0 -83 -37 -22 c-56 -33 -110
-51 -188 -62 -109 -15 -145 -15 -157 0 -14 17 5 32 40 32 13 0 20 4 17 10 -3
6 5 10 19 10 14 0 29 -7 34 -16 5 -10 15 -14 21 -10 9 6 9 12 -1 24 -11 14
-10 15 7 8 25 -10 35 -10 59 0 14 5 17 4 12 -4 -4 -7 -1 -12 9 -12 9 0 13 5
10 11 -4 6 0 9 11 7 12 -2 20 5 24 22 5 22 11 25 42 22 41 -3 70 20 49 41 -9
9 -14 9 -19 0 -6 -9 -12 -7 -25 7 -18 21 -71 27 -82 10 -10 -17 -37 -11 -42 9
-3 11 -15 22 -26 26 -20 6 -20 8 -4 12 10 3 24 0 31 -6 9 -7 22 -7 44 1 35 13
42 28 15 28 -15 0 -14 2 3 15 17 15 13 15 -52 10 -52 -5 -74 -3 -79 6 -6 9 0
11 27 6 19 -3 41 -1 49 4 9 6 -1 9 -33 10 -27 1 -54 2 -60 3 -7 1 -13 -6 -13
-14 0 -10 -8 -14 -27 -12 -26 3 -46 -12 -29 -22 5 -3 7 -15 4 -26 -4 -14 0
-20 11 -20 12 0 16 7 14 22 -2 11 2 23 8 25 8 3 10 -12 6 -47 -5 -51 10 -70
23 -30 7 23 35 27 35 5 0 -9 6 -18 14 -21 8 -3 12 -13 9 -23 -3 -13 -12 -16
-34 -13 -16 2 -29 8 -29 13 0 5 -8 9 -17 8 -10 0 -13 -3 -6 -5 17 -8 -10 -53
-42 -70 l-26 -13 2 100 c1 54 5 101 9 104 3 2 5 18 2 35 l-4 30 192 0 193 0
-7 -31z m292 9 c45 -7 82 -16 82 -22 0 -20 64 -65 101 -71 21 -4 39 -11 39
-16 0 -9 -60 -13 -145 -9 -74 2 -214 61 -280 116 l-30 25 75 -6 c41 -3 112
-11 158 -17z m-926 -13 c-2 -11 -8 -22 -12 -25 -5 -3 -5 -11 -1 -19 5 -7 5
-29 0 -50 -5 -20 -9 -53 -9 -73 0 -43 -1 -44 -38 -21 -15 9 -28 18 -30 19 -2
1 5 18 14 38 14 27 21 33 30 25 11 -9 13 -3 12 25 -1 26 -5 35 -15 32 -7 -3
-13 -1 -13 4 0 6 -4 10 -10 10 -5 0 -10 -8 -10 -19 0 -10 -7 -24 -15 -31 -18
-15 -20 -47 -2 -53 9 -3 9 -8 1 -17 -9 -9 -15 -7 -26 9 -8 12 -17 18 -20 15
-12 -11 -17 32 -10 81 7 49 8 50 46 53 21 1 46 7 55 12 27 16 56 8 53 -15z
m378 -69 c0 -3 -4 -8 -10 -11 -5 -3 -10 -1 -10 4 0 6 5 11 10 11 6 0 10 -2 10
-4z m-537 -341 c19 -19 32 -37 28 -41 -3 -4 0 -4 7 0 8 5 21 1 30 -7 9 -8 35
-23 57 -33 145 -63 243 -86 382 -86 64 0 120 5 132 12 12 6 41 12 65 13 24 1
42 5 40 9 -3 5 59 48 70 48 2 0 6 -26 10 -57 9 -74 12 -93 31 -178 8 -38 15
-71 15 -73 0 -1 -91 -2 -203 -2 -111 1 -209 -1 -217 -4 -19 -7 -106 165 -94
185 5 9 2 10 -10 6 -10 -4 -22 -7 -27 -7 -16 0 -10 -16 31 -84 22 -36 40 -72
40 -80 0 -17 -16 -30 -23 -19 -3 5 -92 6 -199 3 -106 -3 -199 -3 -206 -1 -10
3 -12 45 -8 205 6 241 5 226 10 226 2 0 20 -16 39 -35z m2097 -455 c19 -19 20
-34 21 -363 0 -188 1 -355 1 -372 1 -70 16 -64 -186 -67 l-183 -3 33 -69 c19
-38 34 -75 34 -83 0 -7 -14 -41 -31 -74 -17 -34 -28 -63 -26 -66 3 -2 65 -4
138 -5 74 0 153 -3 177 -5 l42 -5 0 -130 c0 -71 -5 -138 -10 -149 -11 -19 -36
-19 -1323 -19 -880 0 -1316 -3 -1323 -10 -7 -7 -33 -7 -80 0 -38 5 -140 10
-226 10 l-158 0 -17 27 c-17 25 -18 69 -14 688 3 647 5 687 35 707 6 4 701 8
1544 8 1519 0 1532 0 1552 -20z m64 -800 c-1 -8 -3 -77 -3 -152 l-1 -138 -186
0 -185 0 7 23 c3 12 15 40 25 61 25 51 24 53 -11 119 -16 31 -30 59 -30 61 0
3 79 6 175 8 189 3 193 5 196 58 l1 25 7 -25 c4 -14 7 -32 5 -40z"/>
<path d="M1360 3675 c-21 -11 -23 -15 -8 -20 27 -11 63 -1 66 18 4 21 -22 22
-58 2z"/>
<path d="M1670 3655 c-7 -8 -11 -17 -9 -18 72 -56 102 -59 67 -8 -27 41 -41
47 -58 26z"/>
<path d="M1334 3566 c-3 -8 -4 -27 -2 -43 4 -35 41 -40 46 -6 6 42 -31 83 -44
49z"/>
<path d="M1488 3532 c-9 -15 -34 -48 -56 -72 -37 -43 -38 -46 -26 -77 24 -57
64 -55 43 3 -11 27 -8 35 30 93 22 35 41 68 41 73 0 17 -16 7 -32 -20z"/>
<path d="M1880 3548 c0 -8 12 -25 26 -39 14 -13 33 -37 41 -52 8 -16 17 -26
20 -23 7 7 -40 87 -66 110 -17 15 -21 16 -21 4z"/>
<path d="M1630 3506 c0 -35 21 -63 40 -51 14 9 13 58 -2 73 -22 22 -38 13 -38
-22z"/>
<path d="M1880 3488 c0 -8 9 -23 20 -33 12 -10 30 -34 42 -54 12 -19 24 -29
26 -23 4 12 -46 90 -72 111 -13 11 -16 11 -16 -1z"/>
<path d="M1870 3432 c0 -5 14 -21 30 -37 35 -33 39 -26 9 16 -19 28 -39 38
-39 21z"/>
<path d="M1247 3393 c-4 -3 -7 -11 -7 -17 0 -6 5 -5 12 2 6 6 9 14 7 17 -3 3
-9 2 -12 -2z"/>
<path d="M1868 3384 c-8 -7 13 -44 24 -44 12 0 10 14 -5 34 -7 9 -16 14 -19
10z"/>
<path d="M1740 3376 c0 -2 7 -7 16 -10 8 -3 12 -2 9 4 -6 10 -25 14 -25 6z"/>
<path d="M1591 3224 c0 -11 3 -14 6 -6 3 7 2 16 -1 19 -3 4 -6 -2 -5 -13z"/>
<path d="M1318 3133 c7 -3 16 -2 19 1 4 3 -2 6 -13 5 -11 0 -14 -3 -6 -6z"/>
<path d="M2449 3103 c-15 -18 -16 -18 33 2 12 5 25 -5 47 -36 37 -51 42 -39 6
14 -28 41 -63 49 -86 20z"/>
<path d="M1103 3063 c9 -2 23 -2 30 0 6 3 -1 5 -18 5 -16 0 -22 -2 -12 -5z"/>
<path d="M718 3053 c12 -2 32 -2 45 0 12 2 2 4 -23 4 -25 0 -35 -2 -22 -4z"/>
<path d="M1098 3043 c18 -2 45 -2 60 0 15 2 0 4 -33 4 -33 0 -45 -2 -27 -4z"/>
<path d="M1920 3010 c-13 -8 -13 -11 3 -27 16 -16 17 -16 17 10 0 30 0 30 -20
17z"/>
<path d="M1380 3000 c19 -12 63 -13 56 -2 -3 5 -20 9 -38 10 -23 1 -28 -2 -18
-8z"/>
<path d="M1870 2990 c0 -5 5 -10 10 -10 6 0 10 5 10 10 0 6 -4 10 -10 10 -5 0
-10 -4 -10 -10z"/>
<path d="M447 2971 c-4 -17 -3 -21 5 -13 5 5 8 16 6 23 -3 8 -7 3 -11 -10z"/>
<path d="M1109 2928 c-6 -15 -5 -68 2 -68 5 0 9 9 9 19 0 11 6 22 13 24 9 4 9
6 -1 6 -7 1 -10 6 -7 11 3 6 1 10 -4 10 -6 0 -11 -1 -12 -2z"/>
<path d="M1010 2890 c0 -5 5 -10 10 -10 6 0 10 5 10 10 0 6 -4 10 -10 10 -5 0
-10 -4 -10 -10z"/>
<path d="M956 2865 c4 -8 10 -12 15 -9 14 8 10 24 -6 24 -9 0 -12 -6 -9 -15z"/>
<path d="M526 2855 c4 -8 10 -15 15 -15 5 0 9 7 9 15 0 8 -7 15 -15 15 -9 0
-12 -6 -9 -15z"/>
<path d="M860 2859 c0 -5 5 -7 10 -4 6 3 10 8 10 11 0 2 -4 4 -10 4 -5 0 -10
-5 -10 -11z"/>
<path d="M728 2833 c7 -3 16 -2 19 1 4 3 -2 6 -13 5 -11 0 -14 -3 -6 -6z"/>
<path d="M1485 2930 c-16 -7 -17 -9 -3 -9 9 -1 20 4 23 9 7 11 7 11 -20 0z"/>
<path d="M1620 2771 c0 -5 10 -7 22 -3 15 4 19 2 13 -7 -6 -10 -3 -11 14 -2
30 16 26 21 -14 21 -19 0 -35 -4 -35 -9z"/>
<path d="M1313 2753 c9 -2 25 -2 35 0 9 3 1 5 -18 5 -19 0 -27 -2 -17 -5z"/>
<path d="M2081 2734 c0 -11 3 -14 6 -6 3 7 2 16 -1 19 -3 4 -6 -2 -5 -13z"/>
<path d="M1778 2613 c7 -3 16 -2 19 1 4 3 -2 6 -13 5 -11 0 -14 -3 -6 -6z"/>
<path d="M893 2603 c9 -2 23 -2 30 0 6 3 -1 5 -18 5 -16 0 -22 -2 -12 -5z"/>
<path d="M1250 2520 c0 -5 5 -10 10 -10 6 0 10 5 10 10 0 6 -4 10 -10 10 -5 0
-10 -4 -10 -10z"/>
<path d="M1105 2500 c-3 -5 -1 -10 4 -10 6 0 11 5 11 10 0 6 -2 10 -4 10 -3 0
-8 -4 -11 -10z"/>
<path d="M1845 2430 l-30 -8 34 -1 c29 -1 32 -3 21 -16 -10 -12 -10 -18 0 -30
7 -8 9 -15 4 -15 -5 0 -1 -5 9 -11 9 -5 22 -7 27 -4 6 3 10 -1 10 -9 0 -9 5
-16 10 -16 17 0 11 38 -7 49 -10 6 -13 11 -8 11 6 0 3 5 -5 11 -12 8 -10 9 8
4 17 -5 22 -2 22 13 0 15 -5 19 -19 15 -10 -3 -22 0 -25 6 -8 12 -8 12 -51 1z"/>
<path d="M2256 2400 c-16 -5 -33 -7 -37 -4 -4 2 -10 0 -14 -5 -7 -12 72 -29
100 -22 17 4 15 6 -10 12 -16 4 -22 7 -13 8 9 0 20 6 23 11 7 12 -9 12 -49 0z"/>
<path d="M1216 2392 c-3 -6 -1 -14 5 -17 15 -10 25 3 12 16 -7 7 -13 7 -17 1z"/>
<path d="M1150 1918 c0 -35 5 -70 10 -78 7 -12 10 -12 10 -1 0 9 8 11 24 7 18
-4 25 -2 28 11 8 38 -3 52 -33 46 -24 -5 -29 -2 -29 15 0 15 5 19 19 15 10 -3
22 0 25 6 7 11 -6 15 -33 11 -9 -1 -12 4 -8 14 4 9 2 16 -3 16 -6 0 -10 -28
-10 -62z"/>
<path d="M1230 1910 c0 -5 4 -10 9 -10 11 0 31 -55 31 -86 0 -28 26 -32 34 -6
8 23 -17 97 -32 97 -6 0 -14 3 -18 8 -11 10 -24 9 -24 -3z"/>
<path d="M1378 1863 c7 -3 16 -2 19 1 4 3 -2 6 -13 5 -11 0 -14 -3 -6 -6z"/>
<path d="M1940 1860 c0 -5 4 -10 9 -10 6 0 13 5 16 10 3 6 -1 10 -9 10 -9 0
-16 -4 -16 -10z"/>
<path d="M1880 1838 c-44 -12 -62 -28 -32 -28 28 0 29 -16 1 -23 -14 -4 -20
-11 -16 -21 3 -8 2 -18 -3 -21 -6 -4 -10 -11 -10 -17 0 -7 17 -9 50 -5 57 7
67 -2 51 -46 -10 -25 -8 -27 13 -27 22 0 24 5 30 71 4 39 10 77 13 85 3 8 0
14 -6 14 -6 0 -11 -6 -11 -14 0 -30 -20 -26 -26 4 -8 38 -11 39 -54 28z m47
-66 c-4 -30 -34 -41 -64 -23 -17 9 -17 10 2 17 11 4 26 16 33 26 18 24 33 13
29 -20z"/>
<path d="M1365 1830 c-36 -16 -68 -47 -61 -59 11 -17 24 -13 31 10 9 29 29 18
30 -16 0 -15 6 -30 13 -32 7 -3 12 4 12 16 0 28 20 37 27 12 6 -24 43 -29 43
-6 0 8 -5 15 -11 15 -6 0 -9 14 -7 33 3 29 0 32 -27 34 -16 1 -39 -2 -50 -7z
m30 -20 c-3 -5 -13 -10 -21 -10 -8 0 -14 5 -14 10 0 6 9 10 21 10 11 0 17 -4
14 -10z"/>
<path d="M1222 1795 c-7 -14 -12 -38 -12 -52 0 -15 -3 -23 -7 -20 -11 11 -35
-32 -28 -52 6 -20 38 -33 61 -24 11 4 13 14 9 34 -6 25 -4 28 11 22 15 -5 16
-1 10 42 -13 82 -24 94 -44 50z m8 -135 c0 -5 -4 -10 -10 -10 -5 0 -10 5 -10
10 0 6 5 10 10 10 6 0 10 -4 10 -10z"/>
<path d="M1758 1801 c4 -12 3 -14 -9 -5 -22 16 -82 18 -77 2 3 -8 17 -12 36
-10 36 4 41 -9 18 -54 -8 -15 -13 -31 -10 -36 8 -12 54 -5 54 8 0 7 5 14 12
16 6 2 12 15 14 29 1 13 5 33 9 45 6 18 2 21 -23 21 -23 0 -29 -4 -24 -16z"/>
<path d="M1155 1790 c10 -33 25 -49 25 -26 0 9 -7 25 -16 34 -15 15 -16 14 -9
-8z"/>
<path d="M1581 1768 c0 -36 2 -39 9 -20 5 12 14 22 19 22 14 0 19 -23 10 -42
-6 -10 -5 -26 2 -41 9 -19 18 -24 41 -22 16 1 34 7 40 13 15 15 0 33 -25 30
-17 -2 -22 4 -28 32 -7 32 -39 70 -60 70 -5 0 -9 -19 -8 -42z"/>
<path d="M1666 1752 c-3 -6 -1 -14 5 -17 15 -10 25 3 12 16 -7 7 -13 7 -17 1z"/>
<path d="M1321 1738 c-1 -9 -8 -21 -16 -25 -13 -7 -13 -13 -3 -36 15 -32 34
-35 41 -7 5 18 11 20 56 15 42 -4 49 -2 44 11 -4 11 -17 15 -42 13 -55 -3 -61
-1 -71 24 -6 16 -9 17 -9 5z"/>
<path d="M1464 1680 c1 -32 10 -39 20 -15 3 9 12 12 23 8 13 -4 11 0 -6 15
-32 29 -38 28 -37 -8z"/>
<path d="M1785 1678 c10 -32 12 -33 38 -20 12 6 30 12 40 14 39 7 19 23 -31
26 -52 3 -53 2 -47 -20z"/>
<path d="M1990 1673 c0 -13 5 -23 10 -23 13 0 13 11 0 30 -8 12 -10 11 -10 -7z"/>
<path d="M2296 1322 c-3 -6 1 -12 9 -16 10 -3 15 -18 14 -43 -1 -50 -10 -68
-34 -69 -11 -1 -27 -3 -35 -5 -21 -6 -26 46 -6 54 9 3 18 2 21 -3 8 -13 25
-13 25 0 0 19 -39 31 -61 20 -16 -9 -19 -19 -17 -47 4 -43 29 -64 56 -46 10 6
30 9 45 6 26 -5 27 -3 27 36 0 30 4 41 15 41 11 0 15 -11 15 -40 0 -28 4 -40
14 -40 11 0 13 9 10 38 -8 56 -12 62 -33 62 -14 0 -21 8 -23 27 -3 28 -30 43
-42 25z"/>
<path d="M2607 1324 c-4 -4 -2 -13 4 -21 7 -8 10 -37 7 -73 -4 -52 -2 -60 13
-60 13 0 17 8 16 35 -1 19 2 37 5 41 14 13 28 -9 28 -42 0 -23 5 -34 14 -34
11 0 13 9 10 38 -8 56 -12 62 -33 62 -14 0 -21 8 -23 27 -3 27 -26 42 -41 27z"/>
<path d="M1375 1310 c3 -5 10 -10 16 -10 5 0 9 5 9 10 0 6 -7 10 -16 10 -8 0
-12 -4 -9 -10z"/>
<path d="M524 1302 c-16 -10 -34 -48 -34 -70 0 -27 38 -72 61 -72 11 0 30 11
43 25 21 22 25 23 36 10 21 -25 63 -15 75 19 8 24 6 31 -14 47 -26 21 -55 12
-66 -20 -3 -10 -13 -21 -23 -25 -9 -3 -24 -11 -33 -17 -29 -21 -51 -4 -47 37
4 48 32 68 54 39 13 -17 16 -18 24 -5 19 29 11 40 -27 40 -21 0 -43 -4 -49 -8z
m164 -75 c4 -20 -25 -34 -40 -19 -15 15 -1 44 19 40 10 -2 19 -11 21 -21z"/>
<path d="M720 1295 c8 -10 11 -36 8 -75 l-4 -60 48 0 c45 0 61 11 38 25 -7 4
-8 28 -4 66 6 54 5 59 -13 59 -17 0 -18 -5 -12 -57 3 -32 3 -62 -1 -67 -18
-19 -30 8 -30 65 0 53 -2 59 -21 59 -18 0 -19 -2 -9 -15z"/>
<path d="M1035 1288 c-15 -49 -1 -121 23 -116 20 4 28 28 9 28 -10 0 -13 8 -9
25 2 14 8 27 12 30 9 5 -11 55 -21 55 -4 0 -10 -10 -14 -22z"/>
<path d="M1168 1286 c-10 -13 -13 -27 -8 -32 5 -5 10 -25 12 -44 2 -27 8 -35
22 -35 11 0 21 6 24 13 2 6 -4 12 -13 12 -12 0 -15 7 -13 27 2 14 8 28 14 30
18 6 44 -26 44 -52 0 -13 5 -27 10 -30 13 -8 49 34 50 58 0 24 -17 21 -25 -4
-8 -25 -20 -16 -20 14 0 17 -7 23 -29 25 -18 2 -30 11 -33 23 -7 25 -14 24
-35 -5z"/>
<path d="M846 1267 c-22 -16 -18 -75 7 -91 19 -12 47 0 55 23 3 10 0 10 -17 2
-12 -7 -26 -9 -31 -6 -15 9 -4 60 14 63 19 4 22 -14 4 -21 -7 -3 -3 -6 10 -6
27 -1 29 24 3 39 -24 13 -24 13 -45 -3z"/>
<path d="M1349 1273 c-21 -3 -25 -8 -22 -27 3 -13 0 -27 -6 -30 -16 -10 -14
-36 3 -36 8 0 18 16 23 37 4 20 13 38 19 40 15 5 26 -40 18 -72 -5 -20 -2 -25
13 -25 18 0 20 5 15 53 -4 46 -16 70 -32 65 -3 0 -17 -3 -31 -5z"/>
<path d="M1546 1267 c-22 -16 -18 -75 7 -91 19 -12 47 0 55 23 3 10 0 10 -17
2 -12 -7 -26 -9 -31 -6 -15 9 -4 60 14 63 18 4 22 -14 4 -20 -7 -3 -5 -7 5
-11 26 -10 35 22 12 39 -23 17 -27 17 -49 1z"/>
<path d="M1944 1268 c-4 -6 -2 -14 4 -16 14 -4 16 -72 2 -72 -5 0 -10 -4 -10
-10 0 -5 9 -10 20 -10 17 0 20 7 20 40 0 29 4 40 15 40 18 0 20 -41 3 -59 -11
-10 -8 -12 12 -9 22 3 25 7 22 36 -3 24 0 32 12 32 12 0 16 -10 16 -40 0 -28
4 -40 14 -40 11 0 13 10 9 43 -7 65 -8 65 -55 63 -24 -2 -51 1 -60 6 -11 5
-19 4 -24 -4z"/>
<path d="M2095 1270 c-3 -5 -1 -11 5 -15 5 -3 10 -18 10 -33 0 -40 11 -50 53
-50 29 0 35 3 28 12 -6 7 -10 29 -9 49 1 40 -5 53 -21 42 -8 -4 -8 -12 0 -26
12 -23 2 -62 -14 -56 -7 2 -12 20 -11 40 1 27 -3 37 -17 40 -11 3 -21 1 -24
-3z"/>
<path d="M2736 1267 c-22 -16 -18 -75 7 -91 19 -12 47 0 55 23 3 10 0 10 -18
1 -28 -15 -40 -3 -33 33 5 26 28 34 28 10 0 -21 15 -26 21 -8 5 12 1 23 -11
31 -23 17 -27 17 -49 1z"/>
<path d="M2814 1268 c-2 -4 0 -9 4 -12 12 -7 13 -64 1 -72 -16 -9 0 -22 21
-17 23 6 25 14 9 30 -14 14 -2 53 17 53 10 0 14 -12 14 -39 0 -41 14 -61 32
-43 6 6 6 12 -1 16 -6 4 -11 25 -11 47 0 21 -3 39 -7 40 -41 4 -76 3 -79 -3z"/>
<path d="M947 1252 c-20 -22 -22 -63 -5 -80 17 -17 43 -15 58 3 16 20 5 32
-14 16 -20 -17 -36 -6 -36 24 0 26 22 39 39 22 16 -16 26 0 11 18 -17 20 -33
19 -53 -3z"/>
<path d="M1447 1252 c-19 -21 -21 -45 -7 -73 13 -23 43 -25 60 -4 16 20 5 32
-14 16 -20 -17 -36 -6 -36 24 0 26 22 39 39 22 16 -16 26 0 11 18 -17 20 -33
19 -53 -3z"/>
<path d="M1704 1256 c-3 -7 -4 -17 -3 -22 1 -5 -1 -17 -6 -27 -11 -27 2 -34
82 -40 57 -5 74 -3 84 10 11 13 9 18 -14 35 -30 22 -35 38 -12 38 8 0 15 -4
15 -10 0 -5 5 -10 10 -10 6 0 10 9 10 20 0 15 -7 20 -29 20 -16 0 -35 -7 -42
-16 -12 -14 -9 -20 16 -40 35 -27 30 -37 -13 -28 -25 5 -32 12 -32 29 0 13 -3
30 -6 39 -7 19 -53 21 -60 2z m44 -14 c2 -7 -3 -12 -12 -12 -9 0 -16 7 -16 16
0 17 22 14 28 -4z m-4 -47 c-7 -17 -20 -20 -28 -6 -7 10 3 21 20 21 8 0 11 -6
8 -15z"/>
<path d="M2475 1253 c4 -10 10 -31 14 -47 8 -36 27 -45 36 -17 7 24 25 28 25
6 0 -26 27 -16 33 13 3 15 9 35 12 45 5 13 2 17 -13 17 -15 0 -18 -5 -14 -25
2 -15 0 -25 -7 -25 -6 0 -11 7 -11 15 0 22 -18 18 -25 -5 -9 -29 -26 -14 -19
16 5 20 3 24 -16 24 -17 0 -21 -4 -15 -17z"/>
<path d="M966 1063 c13 -26 12 -53 -2 -105 -4 -13 0 -18 14 -18 16 0 20 7 19
35 -1 19 2 37 5 41 14 13 28 -9 28 -42 l0 -34 95 0 c85 0 113 8 86 24 -10 7
-2 56 9 56 5 0 11 -6 13 -12 4 -10 8 -9 16 2 12 18 23 9 37 -33 14 -41 32 -45
44 -10 5 15 15 36 20 45 14 25 13 28 -11 28 -15 0 -19 -5 -15 -17 6 -19 -9
-52 -18 -42 -3 3 -7 16 -9 29 -4 23 -9 25 -73 28 -56 3 -67 1 -56 -9 17 -18
15 -66 -3 -73 -11 -4 -15 2 -15 27 0 18 -4 38 -9 45 -12 20 -55 11 -60 -13 -3
-17 -1 -18 13 -6 13 11 20 11 28 3 9 -9 8 -12 -5 -12 -10 0 -25 -9 -34 -20
-25 -28 -31 -25 -35 18 -2 30 -7 38 -25 40 -17 3 -23 10 -23 28 0 19 -5 24
-24 24 -24 0 -24 -1 -10 -27z m154 -98 c0 -8 -7 -15 -15 -15 -16 0 -20 12 -8
23 11 12 23 8 23 -8z"/>
<path d="M1630 1080 c0 -5 7 -10 15 -10 8 0 15 5 15 10 0 6 -7 10 -15 10 -8 0
-15 -4 -15 -10z"/>
<path d="M2350 1081 c0 -6 5 -11 10 -11 6 0 10 -9 10 -20 0 -14 -7 -20 -21
-20 -26 0 -48 -26 -49 -57 0 -28 12 -35 70 -40 35 -3 51 1 61 13 13 16 11 17
-14 10 l-28 -7 2 68 c2 63 1 68 -19 71 -12 2 -22 -1 -22 -7z m17 -92 c4 -22
-12 -40 -30 -33 -20 7 -22 25 -5 42 15 15 32 10 35 -9z"/>
<path d="M1570 1060 c0 -16 -7 -20 -34 -20 -71 0 -87 -27 -38 -67 l27 -22 -28
-1 c-16 0 -26 -4 -22 -10 10 -16 55 -11 62 7 4 11 -1 22 -15 31 -12 8 -22 21
-22 28 0 17 16 18 26 3 5 -8 10 -6 16 5 12 22 31 10 23 -15 -8 -25 3 -59 19
-59 8 0 20 8 27 17 12 15 12 16 -3 10 -15 -5 -18 -1 -18 22 0 17 6 31 16 35
27 10 37 -5 31 -50 -4 -41 -3 -44 19 -44 13 0 24 5 24 10 0 6 -5 10 -11 10 -6
0 -9 17 -7 43 3 41 2 42 -31 45 -23 2 -35 9 -38 23 -7 25 -23 25 -23 -1z"/>
<path d="M1382 1028 c-7 -7 -12 -24 -12 -38 0 -14 5 -31 12 -38 16 -16 53 -15
67 1 14 18 2 30 -15 16 -15 -12 -44 -5 -44 11 0 5 11 10 24 10 29 0 39 12 30
34 -7 19 -45 21 -62 4z m40 -13 c0 -5 -5 -11 -11 -13 -6 -2 -11 4 -11 13 0 9
5 15 11 13 6 -2 11 -8 11 -13z"/>
<path d="M1694 983 c0 -43 3 -53 15 -51 12 3 15 13 13 40 -4 38 14 60 29 37 5
-8 8 -27 7 -44 -2 -22 2 -30 15 -33 14 -3 18 1 14 15 -3 10 -8 35 -11 55 -6
35 -9 37 -44 36 l-37 0 -1 -55z"/>
<path d="M1840 1033 c-35 -6 -50 -28 -41 -61 6 -21 14 -27 35 -27 33 1 32 -28
-2 -33 -30 -5 -28 -22 3 -22 13 0 28 8 33 18 15 27 21 132 8 131 -6 -1 -22 -4
-36 -6z m18 -40 c-5 -26 -38 -29 -38 -4 0 15 6 21 21 21 14 0 19 -5 17 -17z"/>
<path d="M2052 1020 c10 -15 10 -22 1 -31 -10 -10 -15 -7 -22 12 l-10 24 -7
-22 c-9 -31 -24 -29 -24 2 0 18 -5 25 -19 25 -18 0 -19 -2 -5 -27 7 -16 14
-36 14 -45 0 -10 7 -18 15 -18 8 0 15 7 15 15 0 8 5 15 10 15 6 0 13 -7 16
-15 10 -24 20 -17 33 23 7 20 15 43 17 50 4 8 -3 12 -20 12 -24 0 -25 -2 -14
-20z"/>
<path d="M2105 1016 c-13 -19 -14 -29 -5 -45 20 -39 80 -21 80 24 0 47 -49 60
-75 21z m53 -24 c3 -16 -2 -22 -16 -22 -24 0 -35 23 -19 39 16 16 31 8 35 -17z"/>
<path d="M2212 1028 c-7 -7 -12 -21 -12 -33 0 -47 62 -63 81 -21 22 47 -33 90
-69 54z m50 -20 c8 -21 -2 -38 -23 -38 -19 0 -27 29 -12 43 11 11 31 8 35 -5z"/>
<path d="M208 733 c12 -2 30 -2 40 0 9 3 -1 5 -23 4 -22 0 -30 -2 -17 -4z"/>
<path d="M230 682 c0 -6 18 -19 41 -30 36 -18 43 -19 67 -6 15 8 33 14 40 14
7 0 11 4 8 9 -4 5 -26 9 -51 9 -25 0 -58 3 -75 7 -17 4 -30 2 -30 -3z"/>
<path d="M300 475 l0 -146 -35 -21 c-20 -11 -34 -22 -32 -24 2 -2 54 -1 115 3
l112 6 0 64 c0 34 -4 63 -8 63 -4 0 -8 -10 -9 -22 -1 -13 -5 -38 -8 -57 l-6
-33 -46 7 c-80 12 -76 2 -70 157 2 76 1 141 -4 144 -5 3 -9 -59 -9 -141z"/>
<path d="M3173 670 c6 -16 15 -30 18 -30 4 0 2 14 -4 30 -6 17 -15 30 -18 30
-4 0 -2 -13 4 -30z"/>
<path d="M3232 603 c-23 -20 -30 -32 -23 -42 7 -11 10 -9 16 8 4 12 18 26 31
31 13 5 24 14 24 20 0 17 -14 12 -48 -17z"/>
<path d="M3119 519 c-13 -11 -17 -18 -9 -15 8 3 23 9 33 12 9 4 17 10 17 15 0
15 -16 10 -41 -12z"/>
<path d="M3220 520 c0 -5 5 -10 10 -10 6 0 10 5 10 10 0 6 -4 10 -10 10 -5 0
-10 -4 -10 -10z"/>
<path d="M50 2505 c0 -808 2 -1466 5 -1463 7 6 7 2920 0 2926 -3 3 -5 -655 -5
-1463z"/>
<path d="M50 472 c0 -161 3 -292 8 -292 8 0 6 569 -2 578 -4 3 -6 -126 -6
-286z"/>
<path d="M3361 164 c0 -11 3 -14 6 -6 3 7 2 16 -1 19 -3 4 -6 -2 -5 -13z"/>
<path d="M60 158 c1 -23 55 -93 83 -106 15 -7 40 -11 55 -9 l27 4 -33 8 c-20
5 -50 27 -82 62 -28 30 -50 49 -50 41z"/>
<path d="M3332 120 c-18 -30 -14 -36 8 -12 21 22 25 32 12 32 -4 0 -13 -9 -20
-20z"/>
<path d="M3295 80 c-3 -5 -27 -16 -53 -24 -34 -11 -40 -15 -21 -15 32 -1 106
34 91 43 -6 3 -13 2 -17 -4z"/>
<path d="M3374 45 l-40 -45 43 0 43 0 0 45 c0 25 -1 45 -2 45 -2 0 -21 -21
-44 -45z"/>
<path d="M0 43 l0 -43 43 0 c32 1 38 3 25 10 -9 6 -28 25 -42 43 l-26 32 0
-42z"/>
</g>
</svg>
