<?xml version="1.0" standalone="no"?>
<!DOCTYPE svg PUBLIC "-//W3C//DTD SVG 20010904//EN"
 "http://www.w3.org/TR/2001/REC-SVG-20010904/DTD/svg10.dtd">
<svg version="1.0" xmlns="http://www.w3.org/2000/svg"
 width="360.000000pt" height="489.000000pt" viewBox="0 0 360.000000 489.000000"
 preserveAspectRatio="xMidYMid meet">

<g transform="translate(0.000000,489.000000) scale(0.100000,-0.100000)"
fill="#000000" stroke="none">
<path d="M333 4703 c-17 -3 -23 -11 -23 -29 0 -22 4 -25 28 -22 27 3 27 2 30
-62 2 -36 1 -107 -3 -157 -7 -90 -8 -93 -31 -93 -19 0 -24 -5 -24 -25 0 -28
10 -30 119 -19 56 6 62 9 59 28 -2 15 -11 22 -34 24 -30 3 -32 5 -28 40 2 20
5 101 8 180 l5 142 -42 -1 c-23 -1 -52 -4 -64 -6z"/>
<path d="M1608 4283 c-61 -66 -73 -129 -34 -185 l23 -35 -21 -9 c-28 -12 -32
-50 -9 -76 10 -11 40 -33 67 -48 53 -31 52 -34 -27 -60 -78 -25 -137 -102
-137 -179 0 -32 5 -43 23 -52 12 -7 38 -25 57 -42 19 -17 65 -44 102 -61 l67
-31 -45 -54 c-38 -45 -45 -61 -43 -90 2 -20 -1 -49 -6 -65 -5 -18 -4 -41 4
-61 9 -26 8 -40 -5 -76 -33 -92 -15 -232 40 -304 l24 -31 -71 -18 c-227 -56
-427 -222 -427 -354 0 -88 97 -258 182 -320 27 -19 56 -48 64 -66 21 -41 72
-94 108 -113 32 -17 32 -28 -1 -169 l-16 -71 -621 -5 c-665 -5 -652 -4 -675
-55 -8 -16 -11 -244 -11 -713 l0 -690 29 -32 29 -33 1474 -2 c810 -2 1517 0
1572 4 82 5 103 10 125 29 25 22 26 25 29 166 3 111 7 145 18 151 21 12 21
372 -1 384 -12 7 -15 65 -17 370 l-3 363 -28 27 -27 28 -587 4 -586 3 7 67 c3
36 6 99 6 139 0 69 1 72 23 72 34 0 64 36 50 59 -9 14 -6 22 13 40 13 13 24
34 24 47 0 14 18 47 40 75 42 54 96 159 106 206 3 17 -2 46 -14 74 l-20 47 35
33 c19 19 73 79 121 134 47 55 107 120 133 145 l47 45 -4 75 c-11 190 -37 275
-160 521 l-83 166 61 6 c86 8 106 29 107 114 0 39 -6 77 -14 92 -8 14 -21 43
-30 63 -31 68 -75 57 -75 -19 0 -51 -21 -97 -51 -114 -28 -14 -34 -5 -20 29
14 34 6 74 -20 97 -25 23 -45 13 -53 -26 -3 -18 -18 -55 -32 -83 -34 -68 -29
-84 90 -305 121 -223 141 -283 141 -422 0 -102 -1 -107 -39 -185 -31 -63 -58
-98 -132 -172 l-94 -93 -58 44 c-67 53 -147 97 -217 122 -27 10 -54 22 -59 27
-14 11 32 57 75 75 44 17 63 50 57 94 -3 20 2 50 14 75 10 24 23 69 29 100 15
80 -1 132 -61 197 -26 29 -52 62 -59 74 -6 13 -23 26 -37 29 -31 8 -27 25 10
42 26 13 27 15 10 33 -19 21 -55 25 -86 8 -19 -10 -20 -9 -13 40 4 28 3 51 -1
51 -5 0 -25 -17 -46 -37 -29 -28 -38 -33 -38 -19 0 9 -4 14 -10 11 -5 -3 -10
-18 -10 -31 0 -26 -1 -25 -102 29 -57 30 -127 62 -156 71 l-53 18 29 50 c16
27 49 64 73 82 24 17 65 52 92 76 56 52 61 85 22 163 l-26 50 22 23 c29 31 22
58 -18 62 -29 3 -31 5 -20 22 9 16 9 23 -5 36 -13 14 -22 15 -47 6 -25 -9 -31
-8 -31 3 0 17 -27 45 -44 45 -7 0 -24 -12 -38 -27z m67 -13 c3 -5 -8 -37 -26
-71 -24 -49 -29 -66 -21 -83 10 -20 11 -20 11 6 2 55 60 119 108 118 14 -1 10
-8 -19 -34 -43 -37 -45 -44 -22 -72 15 -18 15 -18 5 3 -13 26 1 33 62 33 l42
-1 -24 -20 c-21 -17 -23 -24 -14 -38 11 -17 7 -19 -36 -25 -52 -7 -91 -28 -73
-40 6 -4 20 -2 31 4 11 5 33 10 48 10 16 0 34 5 39 10 16 16 48 -62 40 -95 -4
-15 -21 -35 -41 -47 -19 -11 -35 -24 -35 -29 0 -4 -24 -26 -54 -48 -35 -26
-65 -59 -82 -91 -21 -39 -35 -53 -57 -57 -38 -8 -23 -20 49 -38 46 -12 252
-104 273 -121 2 -2 -1 -15 -7 -29 -11 -23 -15 -25 -54 -18 -60 9 -234 93 -290
139 -56 46 -59 63 -20 125 37 57 46 64 123 91 55 20 64 27 67 49 3 22 -2 28
-25 33 -50 13 -105 55 -101 78 5 34 24 32 67 -7 69 -63 68 -33 -2 41 -70 74
-84 104 -69 145 24 61 88 109 107 79z m1005 -339 c22 -42 0 -151 -30 -151 -6
0 -10 -7 -10 -15 0 -34 40 6 52 51 13 48 31 54 36 11 4 -36 -24 -86 -53 -93
-14 -3 -25 -10 -25 -15 0 -15 37 -10 50 6 7 8 17 15 23 15 6 0 2 -10 -10 -21
-24 -24 -145 -43 -163 -25 -21 21 -8 -9 89 -202 135 -271 161 -354 161 -519 0
-69 -1 -73 -30 -93 -17 -12 -54 -50 -81 -84 -165 -200 -407 -410 -555 -482
-94 -45 -133 -49 -151 -14 -16 32 -17 94 0 108 6 6 60 27 119 47 178 62 309
145 436 280 121 127 169 255 152 406 -12 109 -45 192 -154 394 -58 108 -96
189 -96 207 0 16 10 48 22 71 12 23 24 56 28 72 6 33 27 39 43 13 8 -12 7 -31
-2 -67 -20 -81 5 -95 64 -34 31 32 35 42 35 88 0 28 3 55 7 58 12 13 32 7 43
-12z m-687 -364 c-3 -23 -11 -37 -20 -37 -9 0 -31 -13 -50 -30 -25 -23 -43
-30 -74 -30 -28 0 -46 -7 -62 -23 -37 -38 -54 -48 -71 -41 -20 8 -21 34 -2 59
14 19 15 19 34 1 20 -17 21 -17 33 2 10 16 20 19 52 14 33 -4 43 -1 63 21 13
14 24 34 25 44 0 16 1 16 9 -2 5 -11 9 -15 9 -8 1 13 52 76 57 70 2 -1 1 -20
-3 -40z m70 -52 c-20 -27 -29 -30 -38 -15 -9 15 14 40 37 40 18 0 18 -1 1 -25z
m-49 -26 c14 -11 42 -25 60 -30 24 -7 46 -25 73 -60 83 -110 97 -163 69 -254
l-12 -40 -18 38 c-10 21 -28 44 -39 52 l-21 15 22 23 c28 29 28 58 2 82 -19
17 -26 18 -67 7 l-46 -13 -37 41 -38 41 -42 -21 c-36 -18 -45 -19 -75 -9 -33
12 -35 11 -79 -29 -25 -23 -54 -42 -65 -42 -40 0 -67 80 -41 120 9 13 12 13
21 -2 17 -29 62 -22 110 17 23 20 47 34 53 32 50 -19 54 -18 81 18 31 40 51
44 89 14z m-99 -144 c47 5 55 3 83 -20 27 -23 36 -25 80 -19 44 6 51 4 61 -15
13 -23 1 -56 -21 -64 -9 -2 0 -19 25 -45 20 -23 38 -48 39 -55 4 -37 3 -65 -4
-61 -4 3 -5 -20 -2 -50 5 -46 2 -58 -15 -75 -12 -12 -30 -21 -41 -21 -11 0
-30 -14 -42 -31 -13 -17 -41 -44 -63 -61 -38 -28 -38 -30 -12 -26 35 7 34 -4
-3 -36 -28 -23 -86 -46 -117 -46 -19 0 -15 18 5 23 9 3 3 5 -14 6 -46 2 -130
48 -169 94 -50 58 -80 159 -71 240 7 70 56 184 83 194 10 3 37 24 61 45 36 33
45 37 63 27 13 -7 41 -9 74 -4z m-235 -79 c0 -6 -7 -19 -15 -30 -13 -18 -14
-17 -21 8 -9 38 2 62 21 46 8 -7 15 -18 15 -24z m424 -512 c-1 -30 -9 -45 -36
-70 -19 -17 -41 -33 -48 -36 -12 -4 -11 -17 2 -79 9 -41 20 -82 24 -92 9 -24
-18 -22 -34 3 -7 11 -22 20 -34 20 -26 0 -58 -27 -58 -48 0 -12 6 -10 24 7 25
24 56 25 64 3 3 -9 -5 -11 -26 -7 -27 4 -31 1 -41 -27 -6 -17 -11 -43 -11 -57
0 -33 20 -105 27 -98 3 3 0 22 -7 41 -7 22 -8 49 -4 69 7 30 8 28 15 -26 7
-61 35 -113 60 -111 8 1 24 4 37 8 19 6 22 4 22 -22 0 -16 3 -31 6 -35 10 -9
55 18 88 52 32 33 45 28 47 -19 0 -14 3 -19 6 -12 12 29 101 -2 123 -43 11
-20 10 -28 -4 -50 -9 -14 -29 -30 -44 -36 l-27 -10 24 -18 c29 -22 20 -41 -18
-41 -25 0 -29 5 -35 38 -3 20 -6 57 -6 82 l-1 45 -13 -31 c-26 -60 -150 -137
-271 -169 -113 -29 -275 -14 -275 27 0 10 7 18 15 18 10 0 15 10 15 30 0 25
-9 36 -45 62 -64 45 -58 61 13 32 45 -19 76 -24 149 -24 50 0 95 4 98 10 3 5
-3 57 -14 115 -16 78 -19 127 -15 192 3 49 1 108 -3 133 -8 43 -11 46 -77 79
-66 33 -126 93 -126 128 0 30 60 4 111 -49 54 -57 157 -45 224 26 31 33 45 41
60 35 16 -5 20 -15 19 -45z m-500 -346 c3 -29 6 -69 6 -88 0 -31 -3 -35 -27
-36 -16 0 -34 -2 -41 -5 -8 -2 -22 19 -38 56 -14 33 -27 65 -30 71 -4 10 81
50 112 53 6 1 14 -22 18 -51z m-4 -188 c0 -54 16 -85 61 -115 42 -28 51 -55
18 -55 -25 0 -57 16 -86 43 -13 11 -23 16 -23 10 0 -14 54 -60 79 -68 25 -8
16 -35 -11 -35 -24 0 -56 16 -85 43 -13 11 -23 16 -23 10 0 -13 67 -73 81 -73
6 0 7 -5 3 -11 -17 -29 -121 30 -160 92 -28 45 -27 73 6 126 21 35 81 72 118
73 19 0 22 -5 22 -40z m310 -475 c0 -24 -5 -35 -15 -35 -18 0 -18 -1 -4 39 14
40 19 39 19 -4z m1520 -95 c19 -19 20 -33 20 -415 l0 -395 -435 0 -435 0 35
-70 c19 -38 35 -77 35 -87 0 -10 -14 -47 -30 -81 -17 -35 -30 -66 -30 -68 0
-2 194 -4 430 -4 l430 0 0 -135 c0 -122 -2 -137 -20 -155 -20 -20 -33 -20
-1584 -20 l-1565 0 -15 22 c-14 20 -16 104 -16 707 0 623 1 686 17 703 15 17
78 18 1580 18 1550 0 1563 0 1583 -20z m70 -925 l0 -175 -444 0 -444 0 30 68
30 68 -36 72 -36 72 428 0 c453 0 452 0 452 47 0 13 5 23 10 23 6 0 10 -65 10
-175z"/>
<path d="M1733 3263 c-7 -2 -13 -9 -13 -15 0 -14 43 -6 48 10 4 12 -12 15 -35
5z"/>
<path d="M1953 3259 c-10 -10 -6 -16 18 -31 40 -24 46 -18 17 16 -18 22 -26
25 -35 15z"/>
<path d="M1717 3183 c-10 -10 -8 -51 2 -58 14 -8 32 30 25 49 -7 17 -16 20
-27 9z"/>
<path d="M2130 3155 c18 -19 31 -37 28 -40 -2 -3 -13 4 -23 15 -34 37 -36 20
-3 -19 25 -31 35 -36 41 -25 12 22 -40 104 -67 104 -5 0 5 -16 24 -35z"/>
<path d="M1831 3174 c-1 -6 -17 -32 -37 -58 -35 -46 -35 -48 -19 -73 12 -18
20 -22 28 -14 7 7 7 15 -2 25 -10 12 -8 23 14 60 15 25 24 51 22 58 -3 8 -6 8
-6 2z"/>
<path d="M1930 3140 c0 -20 5 -30 15 -30 10 0 15 10 15 30 0 20 -5 30 -15 30
-10 0 -15 -10 -15 -30z"/>
<path d="M2119 3086 c14 -14 27 -26 29 -26 10 0 -26 44 -39 48 -8 3 -3 -7 10
-22z"/>
<path d="M2106 3055 c4 -8 11 -15 16 -15 6 0 5 6 -2 15 -7 8 -14 15 -16 15 -2
0 -1 -7 2 -15z"/>
<path d="M1920 3007 c0 -16 -57 -32 -140 -41 -19 -2 -3 -2 35 0 39 2 82 6 98
10 45 11 32 -15 -19 -36 -59 -26 -108 -25 -164 2 -43 20 -44 21 -20 28 15 5
18 8 8 9 -9 1 -18 7 -21 14 -3 9 -7 9 -17 1 -14 -14 -4 -54 14 -54 6 0 29 -9
51 -20 52 -27 91 -25 151 5 58 30 54 29 54 9 0 -8 5 -12 10 -9 18 11 10 51
-15 75 -20 19 -25 20 -25 7z"/>
<path d="M1780 2870 c20 -13 40 -13 40 0 0 6 -12 10 -27 10 -22 0 -25 -2 -13
-10z"/>
<path d="M1930 2233 c0 -15 58 -63 76 -63 26 0 54 20 54 37 0 13 -3 14 -12 5
-19 -19 -70 -14 -95 10 -13 12 -23 17 -23 11z"/>
<path d="M1945 1384 c-8 -9 -15 -24 -15 -34 0 -10 -6 -21 -12 -24 -10 -5 -10
-7 0 -12 15 -7 16 -46 0 -62 -9 -9 -4 -12 23 -11 18 0 28 3 22 6 -7 2 -13 17
-13 33 0 16 6 30 13 33 23 8 37 -5 37 -33 0 -16 -6 -31 -12 -33 -7 -3 3 -5 22
-5 19 0 29 2 23 5 -19 7 -17 63 2 63 8 0 15 5 15 10 0 6 -7 10 -15 10 -17 0
-18 6 -5 35 5 11 9 14 9 8 1 -18 21 -16 21 2 0 29 -40 17 -51 -15 -13 -36 -59
-44 -59 -11 0 11 5 23 10 26 6 3 10 1 10 -4 0 -6 5 -11 10 -11 16 0 12 27 -5
34 -8 3 -21 -2 -30 -10z"/>
<path d="M658 1383 c-58 -4 -58 -4 -57 -36 0 -30 1 -31 11 -9 6 12 15 22 20
22 13 0 10 -108 -4 -113 -7 -3 7 -5 32 -6 37 0 41 2 22 10 -20 8 -23 15 -20
56 3 51 21 67 33 31 7 -22 7 -22 14 7 10 47 26 31 29 -30 2 -44 0 -55 -13 -55
-8 0 -15 -4 -15 -10 0 -5 14 -10 30 -10 17 0 30 5 30 10 0 6 -4 10 -10 10 -14
0 -13 33 2 48 21 21 28 13 28 -28 0 -34 3 -40 21 -40 16 0 19 3 11 13 -6 6
-12 28 -14 47 -3 31 -6 35 -29 33 -23 -1 -25 2 -21 28 4 25 1 29 -19 27 -13
-1 -50 -3 -81 -5z"/>
<path d="M1490 1380 c0 -5 5 -10 10 -10 6 0 10 5 10 10 0 6 -4 10 -10 10 -5 0
-10 -4 -10 -10z"/>
<path d="M2629 1363 c-6 -15 -16 -31 -22 -36 -9 -7 -9 -10 1 -14 15 -6 16 -45
0 -61 -9 -9 -4 -12 22 -11 19 0 29 3 23 6 -19 7 -17 63 2 63 8 0 15 5 15 10 0
6 -7 10 -15 10 -17 0 -18 6 -5 35 5 11 9 14 9 8 1 -18 21 -16 21 2 0 27 -40
17 -51 -12z"/>
<path d="M1430 1371 c0 -5 -7 -17 -16 -25 -8 -9 -11 -16 -5 -16 5 0 11 -19 13
-42 2 -35 7 -43 22 -43 11 0 21 6 24 13 2 8 -2 10 -13 6 -14 -6 -16 -1 -13 27
3 29 7 34 32 37 l29 4 -5 -50 c-5 -48 -4 -49 21 -44 14 3 20 7 14 9 -8 3 -13
22 -13 49 0 44 0 44 -35 44 -28 0 -35 4 -35 20 0 11 -4 20 -10 20 -5 0 -10 -4
-10 -9z"/>
<path d="M2275 1357 c-5 -12 -8 -42 -5 -67 4 -36 9 -45 24 -45 11 0 21 6 24
13 2 8 -2 10 -13 6 -14 -6 -16 -1 -13 27 2 21 8 33 16 32 6 -2 12 2 12 7 0 6
-4 10 -10 10 -5 0 -10 9 -10 20 0 27 -13 25 -25 -3z"/>
<path d="M846 1328 c-21 -30 -20 -51 4 -73 17 -15 24 -16 45 -7 14 6 25 16 25
22 0 6 -7 6 -19 -1 -20 -13 -51 -6 -51 11 0 5 16 10 35 10 39 0 46 17 17 43
-25 23 -38 21 -56 -5z m45 -13 c0 -6 -10 -12 -23 -13 -19 -4 -20 -2 -9 12 15
17 33 18 32 1z"/>
<path d="M1120 1330 c-11 -11 -20 -24 -20 -29 0 -39 39 -68 70 -51 11 6 20 15
20 20 0 6 -8 5 -19 -1 -20 -13 -51 -6 -51 11 0 5 16 10 35 10 39 0 46 17 19
44 -20 21 -30 20 -54 -4z m48 -18 c2 -7 -6 -12 -17 -12 -21 0 -27 11 -14 24 9
9 26 2 31 -12z"/>
<path d="M1276 1343 c-4 -4 -17 -8 -29 -8 -30 0 -56 -47 -38 -69 7 -9 24 -16
38 -16 18 0 24 -5 21 -17 -2 -11 -12 -18 -26 -17 -25 1 -29 -11 -7 -20 39 -14
51 6 58 102 4 49 -1 61 -17 45z m-8 -50 c4 -25 -22 -37 -38 -17 -10 11 -10 17
0 29 17 20 34 14 38 -12z"/>
<path d="M1656 1334 c-29 -28 -11 -94 25 -94 17 0 49 20 49 31 0 6 -8 6 -21
-1 -22 -12 -49 -7 -49 10 0 5 13 10 29 10 39 0 47 14 21 40 -24 24 -34 25 -54
4z m45 -19 c0 -5 -9 -11 -21 -13 -20 -3 -27 8 -13 22 10 9 34 3 34 -9z"/>
<path d="M1828 1339 c-26 -15 -24 -75 2 -89 22 -12 60 2 60 22 0 9 -3 9 -12 0
-17 -17 -48 -15 -48 3 0 10 10 15 30 15 23 0 30 4 30 20 0 10 -9 24 -19 30
-23 12 -22 12 -43 -1z m42 -24 c0 -8 -9 -15 -20 -15 -20 0 -26 11 -13 23 12
13 33 7 33 -8z"/>
<path d="M2076 1334 c-26 -25 -20 -72 9 -86 21 -10 29 -9 43 5 16 16 15 17
-16 11 -25 -5 -32 -3 -32 10 0 11 9 16 30 16 23 0 30 4 30 20 0 10 -9 24 -19
30 -25 13 -27 13 -45 -6z m44 -19 c0 -8 -9 -15 -20 -15 -20 0 -26 11 -13 23
12 13 33 7 33 -8z"/>
<path d="M2375 1341 c-41 -8 -47 -46 -11 -63 36 -16 33 -32 -4 -24 -35 6 -39
1 -10 -14 27 -14 60 -4 60 19 0 10 -11 23 -25 29 -30 14 -33 32 -5 32 11 0 20
-6 20 -12 0 -9 4 -8 10 2 12 18 13 40 3 39 -5 -1 -21 -4 -38 -8z"/>
<path d="M990 1329 c0 -5 5 -9 10 -9 14 0 12 -54 -2 -68 -9 -9 -6 -12 15 -12
27 0 37 15 15 22 -16 6 -1 58 17 58 11 0 15 -11 15 -39 0 -44 8 -55 30 -40 10
5 10 9 3 9 -7 0 -13 18 -15 43 l-3 42 -42 2 c-24 1 -43 -3 -43 -8z"/>
<path d="M1320 1325 c-7 -9 -10 -18 -6 -22 3 -4 13 2 20 13 12 15 17 17 27 7
15 -15 4 -29 -26 -35 -12 -2 -21 -13 -23 -25 -3 -20 1 -22 43 -21 25 0 48 5
51 10 3 4 0 7 -8 6 -9 -2 -12 6 -10 25 6 49 -39 77 -68 42z m50 -54 c0 -10
-30 -24 -37 -17 -3 3 -2 9 2 15 8 13 35 15 35 2z"/>
<path d="M1532 1333 c3 -5 13 -27 23 -50 10 -24 22 -43 26 -43 5 0 19 23 32
50 l24 50 -24 0 c-14 0 -22 -4 -18 -11 4 -5 4 -22 0 -36 -8 -32 -27 -17 -27
21 0 19 -6 26 -20 26 -11 0 -18 -3 -16 -7z"/>
<path d="M2177 1322 c-21 -23 -22 -56 -1 -76 21 -21 37 -20 59 4 10 11 13 20
7 20 -6 0 -14 -4 -17 -10 -3 -5 -15 -10 -26 -10 -13 0 -19 7 -19 24 0 30 22
50 38 34 17 -17 27 -2 12 17 -17 20 -33 19 -53 -3z"/>
<path d="M2505 1316 c-23 -34 -5 -66 36 -66 22 0 32 6 38 23 21 57 -41 93 -74
43z m62 -12 c9 -25 -26 -49 -44 -31 -8 7 -11 21 -7 30 8 22 43 22 51 1z"/>
<path d="M2730 1336 c0 -2 12 -25 27 -51 l26 -48 -21 -17 c-22 -18 -20 -32 3
-24 7 3 23 31 36 62 12 31 27 63 32 70 7 9 3 12 -15 12 -18 0 -24 -5 -23 -22
0 -33 -19 -38 -23 -5 -2 19 -9 27 -23 27 -10 0 -19 -2 -19 -4z"/>
<path d="M2848 1314 c-14 -31 -1 -57 31 -62 28 -4 51 14 51 42 0 50 -62 65
-82 20z m62 -18 c0 -25 -15 -37 -37 -28 -14 4 -18 34 -6 45 3 4 15 7 25 7 12
0 18 -7 18 -24z"/>
<path d="M2938 1333 c6 -2 12 -19 12 -38 0 -18 6 -37 13 -42 17 -14 137 -16
137 -3 0 5 -4 10 -10 10 -16 0 -12 46 5 60 12 10 15 10 15 -4 0 -9 5 -16 10
-16 6 0 10 9 10 19 0 16 -7 19 -47 19 -27 0 -42 -3 -35 -5 7 -3 12 -22 12 -44
0 -30 -3 -37 -15 -33 -10 4 -15 20 -15 45 0 34 -3 39 -22 39 -17 0 -19 -3 -10
-9 19 -12 11 -65 -10 -69 -15 -3 -18 4 -18 37 0 36 -3 41 -22 40 -13 0 -17 -3
-10 -6z"/>
<path d="M1006 1132 c-3 -6 -1 -14 5 -17 15 -10 25 3 12 16 -7 7 -13 7 -17 1z"/>
<path d="M765 1108 c-10 -29 -6 -110 5 -122 11 -11 40 11 39 28 0 7 -2 6 -6
-1 -10 -25 -23 -12 -23 22 0 24 5 35 15 35 8 0 15 5 15 10 0 6 -4 10 -10 10
-5 0 -10 9 -10 20 0 27 -16 25 -25 -2z"/>
<path d="M940 1111 c0 -11 -6 -22 -12 -25 -10 -5 -10 -7 0 -12 6 -3 12 -23 12
-44 0 -21 5 -42 10 -45 12 -8 40 12 40 27 0 7 -5 6 -13 -1 -19 -15 -24 -7 -19
29 3 19 10 30 21 30 14 1 14 2 -1 14 -10 7 -18 21 -18 30 0 9 -4 16 -10 16 -5
0 -10 -9 -10 -19z"/>
<path d="M2038 1123 c6 -2 12 -16 12 -29 0 -19 -5 -24 -25 -24 -32 0 -51 -34
-36 -66 10 -22 15 -24 79 -21 37 2 73 7 80 11 7 4 12 3 12 -3 0 -6 8 -7 17 -4
11 4 12 8 5 11 -7 2 -12 22 -12 48 0 30 -4 44 -13 44 -10 0 -13 -13 -13 -41 1
-58 -22 -64 -26 -7 -3 36 -7 44 -26 46 -17 3 -21 8 -17 23 5 16 2 19 -22 18
-15 0 -22 -3 -15 -6z m62 -93 c0 -29 -4 -40 -15 -40 -11 0 -15 11 -15 40 0 29
4 40 15 40 11 0 15 -11 15 -40z m-50 0 c0 -24 -26 -38 -42 -22 -16 16 -2 42
22 42 13 0 20 -7 20 -20z"/>
<path d="M2458 1123 c6 -2 12 -16 12 -29 0 -18 -5 -24 -23 -24 -29 0 -47 -18
-47 -46 0 -31 19 -42 75 -42 28 1 42 3 33 5 -15 4 -18 16 -18 74 0 65 -1 69
-22 68 -13 0 -17 -3 -10 -6z m12 -93 c0 -24 -26 -38 -42 -22 -16 16 -2 42 22
42 13 0 20 -7 20 -20z"/>
<path d="M2570 1115 c7 -9 11 -37 8 -74 l-3 -59 31 2 c43 4 54 13 54 45 0 32
-22 56 -45 47 -11 -4 -15 2 -15 24 0 24 -4 30 -21 30 -18 0 -19 -3 -9 -15z
m68 -67 c14 -14 -2 -48 -23 -48 -21 0 -27 17 -15 40 12 23 21 25 38 8z"/>
<path d="M2880 1120 c-7 -5 -19 -6 -27 -3 -9 4 -13 -4 -13 -23 l0 -28 20 22
c22 24 50 20 50 -7 0 -10 -13 -30 -30 -46 -42 -40 -39 -55 10 -55 39 0 64 21
45 38 -4 4 -10 1 -12 -5 -5 -15 -43 -17 -43 -3 0 6 4 10 9 10 18 0 53 59 46
79 -6 21 -36 32 -55 21z"/>
<path d="M2960 1080 c0 -38 1 -40 21 -30 15 9 24 8 35 -1 33 -28 4 -60 -36
-39 -18 9 -21 9 -18 -1 14 -42 88 -31 88 14 0 29 -18 47 -47 47 -14 0 -23 6
-23 15 0 18 46 21 53 3 2 -7 8 -10 12 -6 19 17 -6 38 -45 38 l-40 0 0 -40z"/>
<path d="M3074 1106 c-10 -26 1 -51 21 -51 14 0 21 8 23 28 2 16 9 27 18 27 9
0 14 -3 12 -7 -2 -5 -16 -32 -31 -61 -16 -30 -26 -56 -24 -58 4 -5 77 120 77
131 0 3 -20 5 -45 5 -31 0 -47 -5 -51 -14z m32 -33 c-6 -14 -9 -15 -16 -4 -11
19 -1 46 13 32 5 -5 7 -18 3 -28z"/>
<path d="M636 1082 c-3 -6 0 -12 8 -15 9 -4 12 -14 9 -25 -9 -37 13 -60 53
-57 34 3 62 15 36 15 -7 0 -12 17 -12 45 0 31 -4 45 -13 45 -10 0 -13 -13 -13
-42 1 -32 -3 -43 -14 -43 -11 0 -15 11 -16 40 0 28 -5 41 -16 43 -9 2 -19 -1
-22 -6z"/>
<path d="M848 1079 c-19 -11 -25 -39 -8 -39 6 0 10 7 10 16 0 9 7 14 17 12 29
-5 25 -25 -7 -32 -26 -5 -31 -10 -28 -28 2 -19 10 -23 45 -25 27 -1 43 4 47
12 3 9 0 12 -10 8 -11 -4 -14 4 -14 35 0 27 -5 42 -16 46 -19 7 -15 8 -36 -5z
m42 -64 c0 -2 -9 -9 -20 -15 -16 -9 -20 -8 -20 5 0 8 9 15 20 15 11 0 20 -2
20 -5z"/>
<path d="M1000 1080 c0 -5 5 -10 11 -10 8 0 10 -15 7 -45 -5 -39 -3 -45 13
-45 11 0 19 5 19 10 0 6 -5 10 -11 10 -7 0 -8 16 -3 45 6 41 5 45 -15 45 -11
0 -21 -4 -21 -10z"/>
<path d="M1078 1079 c-10 -6 -18 -22 -18 -37 0 -50 42 -69 73 -34 22 24 21 38
-3 62 -23 23 -28 24 -52 9z m48 -54 c-7 -18 -47 -17 -53 1 -2 7 4 19 13 29 15
15 19 15 32 1 8 -8 12 -22 8 -31z"/>
<path d="M1281 1077 c-18 -18 -13 -34 16 -55 33 -24 27 -34 -15 -26 -27 5 -31
11 -34 43 -3 36 -3 36 -53 38 -32 2 -45 -1 -36 -6 10 -6 12 -21 8 -50 -4 -35
-2 -41 13 -41 11 0 22 5 25 10 3 6 1 10 -4 10 -16 0 -13 57 3 63 20 8 26 -2
26 -43 l0 -36 54 -2 c63 -2 81 18 41 44 -14 9 -25 23 -25 30 0 16 16 19 25 4
10 -16 25 -11 25 8 0 14 -8 19 -29 20 -15 0 -33 -4 -40 -11z"/>
<path d="M1448 1079 c-19 -11 -25 -39 -8 -39 6 0 10 7 10 16 0 9 7 14 17 12
29 -5 25 -25 -7 -32 -26 -5 -31 -10 -28 -28 3 -21 9 -23 76 -26 45 -2 72 1 72
8 0 5 -4 10 -10 10 -16 0 -12 46 5 60 12 10 15 10 15 -4 0 -9 5 -16 10 -16 13
0 13 37 0 45 -6 4 -17 1 -25 -5 -11 -9 -15 -9 -15 -1 0 6 -9 11 -20 11 -11 0
-20 -4 -20 -10 0 -5 5 -10 10 -10 6 0 10 -15 10 -33 0 -26 -4 -33 -20 -34 -17
-2 -20 4 -20 37 0 25 -5 40 -16 44 -19 7 -15 8 -36 -5z m26 -76 c-13 -10 -20
-10 -23 -2 -4 14 19 30 33 22 5 -3 1 -12 -10 -20z"/>
<path d="M1644 1082 c-33 -22 -21 -92 16 -92 26 0 50 10 50 21 0 6 -9 5 -21
-1 -22 -12 -49 -7 -49 10 0 5 13 10 29 10 36 0 46 13 31 40 -11 20 -36 26 -56
12z m46 -22 c0 -5 -12 -10 -26 -10 -14 0 -23 4 -19 10 3 6 15 10 26 10 10 0
19 -4 19 -10z"/>
<path d="M1780 1080 c0 -5 5 -10 10 -10 6 0 10 -16 10 -35 0 -19 -4 -35 -10
-35 -5 0 -10 -4 -10 -10 0 -5 14 -10 30 -10 17 0 30 5 30 10 0 6 -4 10 -10 10
-16 0 -12 46 5 60 12 10 15 10 15 -4 0 -9 5 -16 10 -16 13 0 13 37 0 45 -6 4
-17 1 -25 -5 -11 -9 -15 -9 -15 -1 0 6 -9 11 -20 11 -11 0 -20 -4 -20 -10z"/>
<path d="M1888 1065 c-14 -32 3 -75 31 -75 27 0 51 10 51 21 0 6 -9 5 -21 -1
-22 -12 -49 -7 -49 10 0 5 13 10 29 10 36 0 46 13 31 40 -16 29 -58 26 -72 -5z
m62 -5 c0 -5 -12 -10 -26 -10 -14 0 -23 4 -19 10 3 6 15 10 26 10 10 0 19 -4
19 -10z"/>
<path d="M2310 1071 c-22 -43 -5 -81 36 -81 12 0 27 7 34 15 14 17 0 21 -17 4
-13 -13 -43 -5 -43 11 0 5 13 10 29 10 37 0 44 11 25 38 -19 27 -50 28 -64 3z
m55 -11 c4 -6 -5 -10 -20 -10 -15 0 -24 4 -20 10 3 6 12 10 20 10 8 0 17 -4
20 -10z"/>
<path d="M2732 1071 c1 -9 0 -25 -1 -36 -2 -19 -2 -19 -16 -2 -7 11 -11 25 -8
33 3 9 -2 14 -16 14 -26 0 -26 -2 -1 -42 31 -51 26 -85 -12 -79 -5 0 -8 -3 -8
-9 0 -17 39 -11 49 8 5 10 18 41 29 69 19 50 19 51 1 56 -13 3 -18 0 -17 -12z"/>
<path d="M488 1073 c15 -6 16 -65 0 -81 -9 -9 -6 -12 14 -12 23 0 25 4 24 36
0 21 4 39 11 41 17 6 27 -35 13 -52 -10 -12 -9 -15 8 -15 16 0 20 6 18 33 -2
48 28 44 32 -5 3 -32 7 -38 25 -37 17 1 18 2 5 6 -14 3 -18 15 -18 49 0 36 -3
44 -18 44 -10 0 -23 -5 -30 -12 -8 -8 -12 -8 -12 -1 0 6 -19 11 -42 11 -24 0
-37 -2 -30 -5z"/>
<path d="M2216 1064 c-20 -19 -21 -58 -2 -74 18 -15 58 -10 64 8 3 11 0 12
-17 3 -27 -15 -41 -6 -41 25 0 28 28 44 40 23 5 -7 12 -10 16 -6 9 9 -15 37
-32 37 -7 0 -20 -7 -28 -16z"/>
<path d="M3144 1035 c-4 -18 -1 -32 10 -43 21 -21 39 -4 34 34 -4 39 -35 45
-44 9z m36 -9 c0 -8 -4 -17 -9 -21 -12 -7 -24 12 -16 25 9 15 25 12 25 -4z"/>
<path d="M3216 1001 c-4 -7 -5 -15 -2 -18 9 -9 19 4 14 18 -4 11 -6 11 -12 0z"/>
<path d="M373 785 l47 -25 0 -160 0 -159 -42 -26 -43 -27 94 6 c52 3 109 6
128 6 l33 0 0 70 c0 83 -15 93 -25 15 -3 -30 -10 -57 -15 -60 -5 -3 -31 0 -59
6 l-51 11 0 158 0 159 40 12 c52 16 51 29 -2 29 -24 0 -68 3 -98 6 l-55 5 48
-26z"/>
<path d="M3058 368 l-24 -63 48 -3 c34 -2 48 -7 48 -18 0 -7 -4 -14 -10 -14
-5 0 -10 -7 -10 -15 0 -11 11 -15 40 -15 40 0 54 15 25 26 -20 8 -19 30 3 39
16 6 16 7 -2 20 -14 11 -17 24 -14 59 3 39 0 46 -14 46 -15 0 -18 -9 -18 -50
0 -47 -2 -50 -25 -50 -29 0 -29 0 -10 47 19 44 19 53 1 53 -8 0 -24 -27 -38
-62z"/>
<path d="M3231 409 c-38 -41 -36 -125 2 -158 9 -7 30 -11 49 -9 43 4 67 43 52
85 -8 25 -15 28 -52 28 -45 0 -53 12 -26 39 16 16 45 9 59 -14 12 -19 25 -10
25 18 0 27 -3 29 -45 30 -34 2 -49 -3 -64 -19z m69 -84 c18 -21 3 -55 -25 -55
-15 0 -26 7 -30 20 -7 23 10 50 30 50 7 0 18 -7 25 -15z"/>
<path d="M2490 375 c8 -9 11 -30 7 -55 l-5 -40 38 0 c26 0 40 5 44 16 4 9 3
20 0 23 -4 3 -9 0 -11 -6 -3 -7 -14 -13 -25 -13 -18 0 -20 5 -16 45 3 42 1 45
-21 45 -20 0 -21 -2 -11 -15z"/>
<path d="M2586 380 c7 -7 8 -29 4 -55 -4 -25 -6 -46 -4 -48 2 -1 21 -1 43 1
27 3 41 9 41 18 0 8 -4 14 -10 14 -5 0 -10 -4 -10 -10 0 -5 -7 -10 -15 -10
-18 0 -20 26 -2 34 10 5 10 7 0 12 -17 8 -17 34 0 34 7 0 18 -5 25 -12 9 -9
12 -9 12 0 0 30 21 8 31 -33 15 -58 37 -57 57 3 17 52 42 57 42 8 0 -19 -5
-38 -10 -41 -20 -12 -1 -21 39 -17 27 3 41 9 41 18 0 8 -4 14 -10 14 -5 0 -10
-4 -10 -10 0 -5 -7 -10 -15 -10 -18 0 -20 26 -2 34 10 5 10 7 0 12 -17 8 -17
34 0 34 7 0 18 -5 25 -12 9 -9 12 -7 12 10 0 20 -5 22 -66 22 -55 0 -65 -3
-60 -15 3 -8 0 -28 -6 -43 l-11 -27 -8 28 c-4 16 -5 35 -2 43 4 11 -9 14 -68
14 -50 0 -70 -3 -63 -10z"/>
<path d="M2887 378 c14 -20 16 -68 3 -84 -11 -12 -5 -14 34 -14 41 0 46 2 45
23 0 12 -3 16 -6 10 -2 -7 -15 -13 -29 -13 -21 0 -23 3 -18 33 3 17 7 38 10
45 2 7 -6 12 -23 12 -18 0 -23 -3 -16 -12z"/>
<path d="M3302 761 c-13 -40 -14 -41 -57 -41 -25 0 -45 -3 -45 -7 0 -5 16 -18
35 -30 l34 -23 -14 -40 c-16 -45 -10 -49 28 -20 32 25 33 25 75 -7 l35 -26 -7
24 c-19 69 -19 73 13 92 42 25 39 37 -9 37 -38 0 -42 3 -58 41 l-18 42 -12
-42z"/>
<path d="M2831 783 c-1 -18 19 -67 25 -61 3 3 -2 21 -10 39 -8 19 -15 29 -15
22z"/>
<path d="M3052 758 c-8 -31 -12 -33 -60 -39 -34 -5 -65 -16 -88 -34 -36 -28
-36 -30 -12 -94 14 -38 19 -19 6 23 -12 37 -11 40 17 62 37 29 43 30 78 1 26
-20 27 -24 16 -55 -15 -43 -7 -49 29 -22 l30 23 32 -23 c38 -27 46 -21 31 22
-11 31 -10 35 19 59 16 14 30 28 30 32 0 3 -19 7 -42 9 -38 3 -43 6 -52 36 -5
17 -13 32 -17 32 -5 0 -12 -15 -17 -32z"/>
<path d="M2783 595 c-36 -32 -17 -32 22 0 17 14 25 25 18 25 -7 0 -25 -11 -40
-25z"/>
</g>
</svg>
