<?xml version="1.0" standalone="no"?>
<!DOCTYPE svg PUBLIC "-//W3C//DTD SVG 20010904//EN"
 "http://www.w3.org/TR/2001/REC-SVG-20010904/DTD/svg10.dtd">
<svg version="1.0" xmlns="http://www.w3.org/2000/svg"
 width="360.000000pt" height="503.000000pt" viewBox="0 0 360.000000 503.000000"
 preserveAspectRatio="xMidYMid meet">

<g transform="translate(0.000000,503.000000) scale(0.100000,-0.100000)"
fill="#000000" stroke="none">
<path d="M996 4935 c14 -77 49 -70 -336 -70 -190 0 -353 -1 -362 -2 -10 -2
-27 -12 -38 -23 -17 -17 -20 -33 -20 -105 l0 -85 -75 0 c-41 0 -75 -3 -75 -8
0 -4 22 -90 49 -190 l50 -183 -44 -122 c-67 -188 -69 -167 19 -167 l76 0 0
-1470 0 -1470 -30 0 c-42 0 -50 -23 -50 -152 0 -112 1 -114 30 -148 29 -35 29
-35 30 -169 l0 -133 -35 -48 -35 -48 0 -116 c0 -111 1 -118 25 -141 l24 -25
281 0 281 0 36 27 36 28 991 -4 990 -3 36 -24 c35 -24 35 -24 327 -24 362 0
333 -14 333 166 0 123 -1 127 -30 167 -28 41 -29 45 -31 174 -2 129 -2 133 24
167 26 33 27 39 27 164 0 140 -1 142 -56 142 l-24 0 5 1138 c3 625 6 1287 5
1470 l0 332 68 0 c38 0 71 2 74 5 3 3 -17 68 -45 145 l-50 139 50 183 c28 101
48 186 46 191 -2 4 -35 7 -74 7 l-69 0 0 79 c0 70 -3 83 -24 108 l-24 28 -374
0 c-243 0 -373 3 -372 10 1 6 5 29 9 53 l7 42 -832 0 -831 0 7 -35z m1634 7
c0 -4 -4 -21 -9 -38 -17 -60 -25 -58 351 -55 360 3 412 0 424 -27 4 -10 10
-55 13 -102 l6 -85 68 -3 c37 -2 67 -6 67 -10 0 -4 -21 -85 -46 -180 l-46
-173 40 -117 c22 -64 44 -125 47 -134 6 -16 0 -18 -58 -18 -36 0 -68 -4 -71
-9 -4 -5 -7 -673 -7 -1485 l-1 -1476 -250 0 -250 0 -38 -30 c-38 -30 -38 -30
-171 -30 l-134 0 0 83 c0 93 -17 131 -69 163 -29 18 -64 19 -639 22 -388 2
-621 -1 -645 -8 -21 -5 -51 -24 -67 -40 -28 -29 -30 -37 -33 -126 l-4 -94
-137 0 -137 0 -34 30 -35 29 -255 1 -255 0 3 1471 c1 1082 -1 1475 -9 1485 -7
9 -33 14 -70 14 -33 0 -59 4 -59 9 0 5 20 65 44 134 l45 125 -48 178 -48 179
61 3 c33 2 66 8 73 14 9 7 13 37 13 87 0 122 -14 115 262 119 128 1 290 0 359
-4 l127 -6 5 -32 c3 -17 9 -46 13 -63 l6 -33 -293 -2 -294 -3 -3 -52 -3 -53
-145 0 c-79 0 -144 -3 -144 -7 0 -5 16 -76 37 -160 l37 -152 -37 -119 c-20
-66 -39 -127 -43 -136 -6 -15 21 -16 289 -16 l296 0 3 38 3 37 640 3 c352 2
843 0 1092 -4 l452 -6 3 -32 3 -31 293 -3 c165 -1 292 2 292 7 0 4 -18 66 -41
136 l-41 128 37 141 c20 77 39 149 41 159 5 16 -7 17 -145 17 l-151 0 0 55 0
55 -325 0 c-179 0 -325 3 -325 8 0 4 11 50 25 102 14 52 25 101 25 107 0 10
-169 13 -797 16 l-798 2 808 3 c444 1 807 -1 807 -6z m-1280 -65 c0 -2 -9 -29
-19 -60 l-20 -57 25 0 c16 0 24 -6 24 -17 1 -10 10 5 21 32 11 28 17 60 14 71
-4 16 1 23 18 28 36 9 97 7 97 -4 0 -7 6 -7 19 0 28 14 64 12 87 -5 19 -15 19
-15 0 -30 -14 -11 -23 -12 -32 -4 -30 24 -80 -27 -59 -60 10 -18 39 -13 53 9
14 23 42 27 42 6 0 -8 -4 -26 -10 -40 -8 -22 -16 -26 -49 -26 -56 0 -74 22
-69 80 5 46 4 46 -24 42 -29 -4 -40 -22 -13 -22 8 0 15 -7 15 -15 0 -9 -9 -15
-25 -15 -16 0 -25 -6 -25 -15 0 -8 9 -15 20 -15 25 0 27 -27 3 -34 -10 -2 -55
-4 -100 -4 l-81 1 18 51 c27 78 42 106 57 106 7 0 13 -2 13 -3z m460 -16 c0
-31 19 -35 32 -7 9 22 18 26 54 26 89 0 112 -27 79 -90 -16 -31 -80 -70 -115
-70 -24 0 -24 -1 -6 41 23 56 29 82 18 76 -5 -4 -15 -27 -22 -52 -11 -39 -33
-65 -54 -65 -3 0 -6 11 -6 25 0 30 -16 33 -23 5 -6 -24 -39 -39 -45 -21 -2 7
-8 8 -15 3 -7 -5 -29 -12 -51 -15 l-38 -6 7 37 c4 20 13 48 21 63 11 21 11 28
1 32 -9 3 -9 8 2 20 10 13 31 17 87 17 67 0 74 -2 74 -19z m278 -52 c-2 -47
-8 -73 -18 -79 -24 -15 -30 -12 -30 18 l-1 27 -22 -27 c-23 -29 -47 -37 -47
-16 0 15 48 98 73 126 38 42 50 30 45 -49z m123 61 c23 -13 25 -47 2 -72 -15
-17 -15 -19 1 -37 15 -17 15 -19 0 -32 -14 -11 -19 -10 -35 11 -10 14 -19 28
-19 33 0 20 -19 3 -22 -20 -2 -20 -9 -29 -25 -31 -28 -4 -29 9 -3 67 11 23 17
47 14 52 -20 33 42 53 87 29z m129 -22 c-20 -31 -31 -55 -51 -105 -5 -13 -16
-23 -25 -23 -13 0 -15 5 -8 28 4 15 7 48 6 75 -2 36 1 47 13 47 8 0 15 -7 15
-15 0 -20 6 -19 30 5 31 31 44 23 20 -12z m-1130 -37 c0 -11 -25 -21 -55 -21
-25 0 -39 12 -28 24 10 9 83 7 83 -3z m1288 -3 c-5 -15 -78 -24 -78 -10 0 16
13 22 48 22 22 0 32 -4 30 -12z m-1718 -392 l0 -95 38 -3 c29 -2 37 -7 37 -23
0 -18 -7 -20 -60 -20 l-60 0 -3 118 -3 117 26 0 c25 0 25 0 25 -94z m230 74
c0 -17 -7 -20 -40 -20 -36 0 -40 -3 -40 -24 0 -21 6 -25 33 -28 24 -2 33 -8
35 -25 3 -20 -1 -23 -32 -23 -31 0 -36 -3 -36 -24 0 -21 5 -25 38 -28 30 -2
38 -7 40 -25 3 -22 0 -23 -62 -23 l-66 0 0 120 0 120 65 0 c58 0 65 -2 65 -20z
m154 -2 c9 -12 16 -28 16 -35 0 -18 -47 -16 -54 2 -3 8 -14 15 -25 15 -21 0
-30 -38 -23 -109 3 -32 8 -41 23 -41 27 0 36 30 14 46 -28 21 -12 46 27 42 31
-3 33 -5 36 -47 6 -80 -65 -119 -124 -67 -26 21 -28 29 -28 99 0 95 15 117 80
117 33 0 46 -5 58 -22z m176 2 c0 -17 -7 -20 -40 -20 -37 0 -40 -2 -40 -29 0
-24 4 -28 23 -24 29 5 51 -11 44 -31 -4 -10 -18 -16 -37 -16 -25 0 -30 -4 -30
-24 0 -21 5 -25 38 -28 29 -2 37 -7 37 -23 0 -18 -7 -20 -65 -20 l-65 0 -3
118 -3 117 71 0 c63 0 70 -2 70 -20z m93 -37 l26 -58 0 58 c1 57 1 57 31 57
l31 0 -3 -117 c-3 -114 -4 -118 -26 -121 -19 -3 -27 7 -52 59 l-29 62 -3 -59
c-3 -55 -5 -59 -28 -59 l-25 0 -1 118 -1 117 27 0 c24 0 31 -8 53 -57z m237
32 c20 -21 24 -36 24 -89 0 -78 -19 -112 -68 -121 -18 -4 -44 -5 -57 -3 -24 3
-24 5 -27 121 l-3 117 54 0 c44 0 58 -4 77 -25z m174 -77 c33 -128 33 -140 4
-136 -15 2 -24 11 -26 26 -5 31 -62 33 -62 2 0 -22 -22 -35 -44 -27 -12 5 -10
24 15 118 16 61 29 113 29 115 0 2 13 4 28 4 28 0 30 -3 56 -102z m178 85 c21
-19 24 -66 4 -82 -12 -10 -12 -16 0 -39 8 -15 14 -44 14 -64 0 -33 -3 -38 -24
-38 -25 0 -36 21 -36 73 0 20 -5 27 -19 27 -17 0 -20 -8 -23 -47 -3 -40 -6
-48 -23 -48 -19 0 -20 8 -23 118 l-3 117 57 0 c39 0 63 -5 76 -17z m89 -24
c12 -40 13 -40 25 -17 8 13 13 31 14 41 0 12 8 17 30 17 17 0 30 -2 30 -4 0
-2 -13 -36 -30 -76 -18 -43 -30 -91 -30 -117 0 -40 -2 -44 -22 -41 -20 3 -24
11 -29 58 -3 30 -17 83 -31 118 l-27 62 29 0 c25 0 31 -5 41 -41z m239 -53 l0
-95 38 -3 c29 -2 37 -7 37 -23 0 -18 -8 -20 -62 -23 l-63 -3 0 89 c0 49 -3
104 -6 121 -6 29 -5 31 25 31 l31 0 0 -94z m142 2 c3 -86 5 -93 24 -96 27 -4
34 19 34 116 0 70 1 72 25 72 24 0 25 -2 25 -72 0 -96 -13 -142 -46 -156 -38
-18 -62 -14 -89 13 -23 22 -25 32 -25 120 0 94 0 95 25 95 24 0 24 -2 27 -92z
m258 72 c11 -11 20 -29 20 -40 0 -28 -46 -28 -55 1 -4 12 -14 19 -23 17 -25
-5 -30 -135 -6 -145 10 -4 22 0 29 10 16 22 55 22 55 2 0 -25 -47 -65 -75 -65
-14 0 -37 11 -50 25 -22 21 -25 33 -25 100 0 89 17 115 75 115 22 0 43 -8 55
-20z m91 -27 l1 -48 21 47 c20 43 26 48 55 48 l32 0 -29 -55 -29 -55 29 -60
c16 -33 29 -63 29 -66 0 -3 -12 -4 -27 -2 -22 2 -33 14 -53 53 l-24 50 -6 -50
c-4 -42 -8 -50 -25 -50 -19 0 -20 8 -23 118 l-3 117 26 0 c23 0 25 -4 26 -47z
m-390 -3253 c19 -5 48 -23 64 -40 26 -27 29 -36 29 -107 0 -88 -11 -115 -57
-143 -31 -19 -56 -20 -652 -20 -596 0 -621 1 -649 19 -44 29 -55 58 -56 143 0
68 3 80 26 107 14 17 40 35 57 40 44 13 1192 14 1238 1z m-2264 -377 c-2 -32
-3 -8 -3 52 0 61 1 87 3 58 2 -29 2 -78 0 -110z m580 142 c2 -6 -77 -10 -225
-10 l-227 0 -3 -403 -2 -402 227 0 c189 -1 225 -3 211 -14 -13 -9 -76 -13
-241 -15 -122 -1 -235 1 -250 4 l-27 7 0 102 c0 92 2 105 25 138 24 35 25 43
25 188 l0 151 -30 32 c-29 31 -30 34 -30 135 l0 102 272 -2 c170 -2 273 -7
275 -13z m2678 -88 c0 -98 -1 -105 -27 -136 -28 -32 -28 -33 -28 -184 0 -146
1 -154 25 -189 23 -33 25 -47 25 -137 l0 -101 -259 0 c-163 0 -262 4 -266 10
-4 7 72 10 220 10 l225 0 -2 402 -3 403 -175 2 c-285 2 -287 2 -270 13 9 6
124 10 275 10 l260 0 0 -103z m-2294 27 c16 -15 47 -30 71 -35 57 -11 1183
-11 1230 0 21 5 51 21 69 35 l31 26 389 0 389 0 0 -375 0 -375 -1495 0 -1495
0 0 375 0 375 392 0 392 0 27 -26z m-904 -416 c-1 -40 -3 -10 -3 67 0 77 1
110 3 73 2 -37 2 -100 0 -140z m3232 -404 c-17 -21 -585 -21 -608 0 -9 8 -30
22 -46 30 l-30 16 28 0 c16 0 39 -8 52 -19 22 -16 53 -19 294 -25 192 -6 275
-4 290 4 19 10 21 20 23 133 l2 122 3 -124 c3 -83 0 -128 -8 -137z m-3275 10
c16 -11 71 -14 281 -14 l260 0 37 25 c51 35 60 31 12 -5 l-39 -29 -277 -1
c-238 0 -279 2 -292 16 -13 12 -16 38 -14 132 l1 117 6 -113 c5 -97 9 -116 25
-128z"/>
<path d="M1979 3846 c-4 -4 -183 -13 -449 -22 -96 -3 -197 -7 -225 -9 -27 -2
-122 -7 -210 -11 l-160 -7 -31 -31 c-34 -35 -31 -5 -55 -411 -5 -93 -16 -285
-25 -425 -15 -262 -34 -588 -55 -953 -13 -223 -11 -242 34 -272 27 -17 38 -19
487 -75 96 -11 209 -25 250 -31 136 -17 323 -40 440 -54 63 -8 151 -19 195
-25 94 -12 90 -12 395 -50 129 -17 245 -30 257 -30 12 0 38 14 58 31 29 26 35
38 35 71 0 23 -54 213 -131 456 -72 230 -144 462 -161 517 -69 231 -339 1092
-348 1110 -5 11 -21 57 -35 102 -36 113 -50 123 -170 123 -50 0 -94 -2 -96 -4z
m189 -53 c11 -10 29 -47 40 -83 22 -73 108 -348 267 -855 59 -187 117 -374
130 -415 13 -41 48 -154 79 -250 127 -406 196 -633 196 -648 0 -50 -60 -62
-200 -42 -36 5 -103 14 -150 19 -47 6 -213 26 -370 46 -157 19 -395 49 -530
66 -599 73 -655 80 -752 94 -83 12 -82 11 -69 272 6 126 14 253 16 283 3 30
12 177 20 325 9 149 22 383 30 520 39 658 34 608 68 626 12 7 113 16 236 21
119 5 351 15 516 22 436 19 449 19 473 -1z"/>
<path d="M1050 3468 c3 -3 100 -45 215 -93 116 -48 213 -91 218 -95 8 -7 -10
-894 -21 -1025 l-7 -80 -177 -90 c-98 -49 -178 -94 -178 -98 0 -4 15 -5 33 -2
17 3 122 9 232 15 539 26 802 43 811 52 2 3 -2 106 -11 229 -22 331 -27 390
-32 385 -5 -4 -47 -197 -93 -423 -13 -61 -26 -117 -30 -123 -4 -7 -21 -8 -56
-1 -27 5 -114 17 -194 26 -80 10 -158 21 -175 24 l-30 7 -3 551 -2 552 52 14
c29 9 107 30 173 47 66 18 138 38 160 45 37 12 38 14 15 19 -14 3 -119 13
-235 21 -115 8 -271 20 -345 25 -234 18 -325 23 -320 18z"/>
<path d="M1750 4850 c-8 -5 -25 -10 -37 -10 -13 0 -23 -4 -23 -10 0 -5 9 -10
21 -10 27 0 19 -23 -11 -30 -34 -8 -36 -27 -3 -33 15 -3 28 -5 28 -4 0 1 10
26 22 55 12 28 21 52 20 52 -1 0 -9 -5 -17 -10z"/>
<path d="M1910 4810 c-7 -17 -9 -34 -5 -38 8 -9 45 35 45 54 0 26 -27 14 -40
-16z"/>
<path d="M2046 4815 c-3 -8 -1 -15 4 -15 6 0 10 7 10 15 0 8 -2 15 -4 15 -2 0
-6 -7 -10 -15z"/>
<path d="M2165 4830 c-3 -5 1 -10 9 -10 8 0 18 5 21 10 3 6 -1 10 -9 10 -8 0
-18 -4 -21 -10z"/>
<path d="M1590 4395 c0 -74 1 -76 23 -73 20 3 22 8 22 73 0 65 -2 70 -22 73
-22 3 -23 1 -23 -73z"/>
<path d="M1780 4390 c0 -11 5 -20 10 -20 6 0 10 9 10 20 0 11 -4 20 -10 20 -5
0 -10 -9 -10 -20z"/>
<path d="M1940 4445 c0 -18 5 -25 20 -25 15 0 20 7 20 25 0 18 -5 25 -20 25
-15 0 -20 -7 -20 -25z"/>
<path d="M2161 1128 c-12 -35 -15 -38 -52 -38 -21 0 -39 -4 -39 -10 0 -5 3
-10 8 -10 4 -1 17 -9 29 -19 20 -17 21 -23 12 -50 -15 -42 -6 -48 27 -22 l26
21 30 -21 c35 -25 46 -19 29 18 -12 25 -10 30 18 55 31 27 38 39 24 37 -5 -1
-22 -1 -39 0 -26 1 -34 7 -46 39 l-14 37 -13 -37z"/>
<path d="M1701 1120 c-9 -26 -15 -30 -48 -30 -45 0 -113 -41 -113 -68 1 -9 8
-30 16 -47 8 -16 12 -22 9 -12 -17 62 -17 63 18 90 l34 25 28 -22 c28 -23 30
-36 8 -92 -5 -13 2 -11 30 10 l36 28 28 -22 c23 -18 29 -19 31 -6 2 8 -2 24
-8 35 -9 17 -6 24 20 42 28 21 40 41 23 38 -5 -1 -22 -1 -40 0 -26 1 -32 6
-38 31 -4 17 -10 30 -15 30 -4 0 -13 -13 -19 -30z"/>
<path d="M1929 1120 c-10 -27 -15 -30 -52 -30 l-42 -1 33 -30 c31 -28 33 -33
23 -61 -14 -41 -9 -45 27 -19 l30 21 26 -21 c33 -26 42 -20 28 20 -9 26 -7 32
21 58 l32 28 -43 3 c-38 3 -43 6 -49 33 -7 37 -21 37 -34 -1z"/>
<path d="M1510 1111 c0 -6 4 -13 10 -16 6 -3 7 1 4 9 -7 18 -14 21 -14 7z"/>
<path d="M1461 979 c-13 -11 -22 -21 -20 -24 3 -2 18 7 34 20 17 13 26 24 20
24 -5 0 -21 -9 -34 -20z"/>
<path d="M2430 720 c0 -5 5 -10 10 -10 6 0 10 -25 10 -55 0 -30 -4 -55 -10
-55 -5 0 -10 -5 -10 -11 0 -6 12 -9 28 -7 19 2 26 8 24 21 -2 9 2 17 8 17 5 0
10 -9 10 -20 0 -13 7 -20 20 -20 25 0 25 5 1 37 -19 23 -19 53 0 53 5 0 9 5 9
10 0 6 -11 10 -25 10 -17 0 -23 -4 -19 -14 3 -8 1 -17 -5 -21 -7 -4 -11 8 -11
34 0 34 -3 41 -20 41 -11 0 -20 -4 -20 -10z"/>
<path d="M2806 723 c-11 -11 -6 -23 9 -23 8 0 15 4 15 9 0 13 -16 22 -24 14z"/>
<path d="M659 718 c0 -2 -1 -33 -2 -71 -2 -67 -2 -67 26 -67 15 0 27 5 27 10
0 6 -4 10 -10 10 -6 0 -10 27 -10 60 0 47 -3 60 -15 60 -8 0 -15 -1 -16 -2z"/>
<path d="M903 694 c-13 -13 -23 -30 -23 -39 0 -20 -36 -55 -56 -55 -14 0 -16
9 -12 55 4 51 3 55 -16 55 -19 0 -21 -6 -21 -65 l0 -65 47 0 c28 0 48 5 51 13
3 9 9 7 24 -5 11 -10 27 -18 37 -18 26 0 56 19 56 35 0 19 -5 19 -33 0 -31
-20 -49 -5 -45 36 2 26 8 35 26 37 12 2 22 -1 22 -7 0 -6 7 -11 15 -11 9 0 15
9 15 24 0 35 -55 42 -87 10z"/>
<path d="M1423 706 c23 -18 22 -36 -2 -36 -39 0 -63 -45 -42 -79 11 -16 111
-27 111 -11 0 5 -7 10 -15 10 -12 0 -15 14 -15 65 0 64 0 65 -27 65 -25 -1
-26 -2 -10 -14z m10 -72 c9 -10 -4 -34 -19 -34 -8 0 -14 9 -14 20 0 19 19 27
33 14z"/>
<path d="M1625 711 c-3 -5 -1 -12 5 -16 13 -8 13 -95 0 -95 -5 0 -10 -4 -10
-10 0 -5 14 -10 30 -10 17 0 30 5 30 10 0 6 -5 10 -11 10 -6 0 -10 17 -9 43 2
23 2 50 1 60 -1 18 -26 24 -36 8z"/>
<path d="M1875 696 c-14 -14 -25 -32 -25 -41 0 -19 -35 -55 -55 -55 -18 0 -21
60 -5 91 10 17 7 19 -20 19 -29 0 -40 -13 -20 -25 6 -3 10 -24 10 -46 0 -21
-4 -39 -10 -39 -5 0 -10 -4 -10 -10 0 -13 93 -13 106 0 8 8 15 6 24 -5 18 -21
63 -19 85 5 24 27 13 36 -19 15 -33 -22 -56 -6 -56 36 0 35 31 56 50 34 18
-22 30 -18 30 10 0 15 -6 25 -14 25 -8 0 -21 3 -30 6 -9 3 -26 -5 -41 -20z"/>
<path d="M2159 718 c0 -2 -1 -33 -2 -71 l-2 -67 30 0 c22 0 26 3 17 12 -19 19
-15 48 7 48 34 0 51 12 51 36 0 27 -26 44 -69 44 -17 0 -31 -1 -32 -2z m71
-43 c0 -8 -9 -15 -20 -15 -11 0 -20 7 -20 15 0 8 9 15 20 15 11 0 20 -7 20
-15z"/>
<path d="M2594 709 c-3 -6 -1 -15 6 -19 9 -5 11 -24 8 -59 -5 -48 -4 -51 18
-51 25 0 33 15 12 22 -21 7 0 38 26 38 38 0 52 34 26 60 -22 22 -84 28 -96 9z
m81 -34 c0 -5 -10 -11 -22 -13 -16 -2 -23 2 -23 13 0 11 7 15 23 13 12 -2 22
-7 22 -13z"/>
<path d="M2970 701 c0 -11 -4 -21 -9 -23 -4 -1 -6 -23 -2 -48 5 -36 10 -45 25
-45 11 0 21 6 24 14 3 8 0 11 -7 7 -7 -5 -11 2 -11 18 0 13 6 26 13 29 10 4
10 7 0 18 -7 7 -13 21 -13 31 0 10 -4 18 -10 18 -5 0 -10 -9 -10 -19z"/>
<path d="M1005 645 c0 -62 1 -65 24 -65 17 0 22 4 17 16 -3 9 -3 20 0 25 9 15
34 -10 27 -27 -4 -10 2 -14 21 -14 32 0 32 4 2 37 -26 28 -25 48 5 64 23 12
16 29 -12 29 -12 0 -19 -7 -19 -19 0 -10 -7 -25 -16 -32 -15 -12 -16 -10 -10
19 7 29 5 32 -16 32 -22 0 -23 -4 -23 -65z"/>
<path d="M1976 702 c-2 -4 -1 -14 5 -22 12 -20 12 -80 -1 -80 -5 0 -10 -4 -10
-10 0 -5 12 -10 26 -10 20 0 24 4 19 19 -3 11 -2 22 3 25 13 8 35 -20 27 -34
-4 -6 4 -10 19 -10 31 0 33 11 6 35 -11 10 -20 23 -20 30 0 7 9 20 20 30 25
23 25 35 0 35 -12 0 -24 -10 -30 -24 -11 -29 -30 -43 -30 -22 0 8 5 18 10 21
6 4 8 11 5 16 -7 11 -42 12 -49 1z"/>
<path d="M590 665 c0 -8 -7 -15 -15 -15 -20 0 -19 -6 5 -30 24 -24 30 -25 30
-5 0 8 7 15 15 15 8 0 15 5 15 10 0 6 -7 10 -15 10 -8 0 -15 7 -15 15 0 8 -4
15 -10 15 -5 0 -10 -7 -10 -15z"/>
<path d="M1201 671 c-8 -5 -11 -16 -8 -25 3 -8 2 -18 -3 -21 -6 -4 -10 -14
-10 -24 0 -15 11 -19 62 -24 69 -6 85 -2 68 18 -13 15 -5 55 11 55 7 0 14 -47
10 -72 0 -5 8 -8 18 -8 17 0 18 6 14 43 -7 52 -15 61 -57 64 l-34 2 5 -40 c4
-25 2 -39 -6 -39 -6 0 -11 13 -11 28 0 43 -27 63 -59 43z m34 -21 c3 -5 -1
-10 -9 -10 -9 0 -16 5 -16 10 0 6 4 10 9 10 6 0 13 -4 16 -10z m-13 -52 c-7
-7 -12 -8 -12 -2 0 14 12 26 19 19 2 -3 -1 -11 -7 -17z"/>
<path d="M1560 665 c0 -8 -7 -15 -15 -15 -8 0 -15 -4 -15 -10 0 -5 7 -10 15
-10 8 0 15 -7 15 -15 0 -8 7 -15 15 -15 8 0 15 7 15 15 0 8 7 15 16 15 13 0
11 5 -7 25 -28 28 -39 31 -39 10z"/>
<path d="M2275 664 c-18 -18 -13 -63 8 -76 19 -12 44 -9 57 7 17 20 7 29 -18
16 -19 -10 -32 -6 -32 11 0 4 11 8 24 8 33 0 44 20 21 37 -25 17 -40 17 -60
-3z"/>
<path d="M2350 670 c0 -5 5 -12 10 -15 14 -9 13 -48 -2 -63 -9 -9 -5 -12 20
-12 18 0 32 5 32 10 0 6 -4 10 -10 10 -11 0 -14 33 -3 43 3 4 12 2 19 -4 11
-9 15 -7 20 5 4 9 3 20 0 24 -11 10 -86 13 -86 2z"/>
<path d="M2713 654 c-12 -19 -14 -30 -6 -43 13 -20 63 -27 74 -9 15 23 10 57
-10 68 -29 15 -39 13 -58 -16z m52 -24 c0 -8 -8 -16 -17 -18 -13 -2 -18 3 -18
18 0 15 5 20 18 18 9 -2 17 -10 17 -18z"/>
<path d="M2790 671 c0 -5 5 -13 11 -17 7 -4 9 -22 6 -45 l-5 -39 49 0 c37 0
49 4 49 15 0 8 -4 15 -9 15 -4 0 -6 11 -3 25 7 37 26 25 30 -18 2 -22 8 -37
16 -37 10 0 12 12 8 48 -2 26 -6 49 -8 51 -2 2 -21 5 -42 7 l-39 3 5 -44 c4
-37 2 -45 -11 -45 -13 0 -16 9 -14 43 2 37 -1 42 -20 45 -13 2 -23 -1 -23 -7z"/>
<path d="M3057 673 c-41 -6 -46 -32 -11 -61 l29 -24 -28 5 c-18 3 -26 0 -24
-7 5 -16 46 -19 64 -5 13 12 12 16 -13 36 -16 12 -25 25 -21 29 4 4 13 2 19
-4 19 -19 28 -14 28 13 0 14 -3 24 -7 24 -5 -1 -21 -4 -36 -6z"/>
<path d="M3110 595 c0 -9 5 -15 11 -13 6 2 11 8 11 13 0 5 -5 11 -11 13 -6 2
-11 -4 -11 -13z"/>
<path d="M1238 498 c15 -15 16 -104 1 -114 -17 -10 4 -24 28 -18 15 4 19 11
15 26 -3 14 -1 19 6 14 7 -4 12 -16 12 -27 0 -12 7 -19 20 -19 24 0 25 8 5 34
-19 25 -19 55 0 62 19 8 9 24 -15 24 -11 0 -20 -9 -23 -22 -3 -14 -5 -9 -6 15
-1 33 -4 37 -28 37 -21 0 -24 -3 -15 -12z"/>
<path d="M1607 503 c-12 -11 -8 -23 8 -23 8 0 15 7 15 15 0 16 -12 20 -23 8z"/>
<path d="M955 430 c0 -70 0 -70 28 -70 15 0 27 5 27 10 0 6 -4 10 -10 10 -5 0
-10 8 -10 18 0 12 11 21 32 27 63 19 44 75 -26 75 l-41 0 0 -70z m73 33 c-5
-26 -38 -29 -38 -4 0 15 6 21 21 21 14 0 19 -5 17 -17z"/>
<path d="M1390 491 c0 -6 5 -13 11 -17 7 -4 10 -27 7 -60 -4 -51 -3 -54 19
-54 24 0 31 14 13 25 -19 12 -10 35 13 35 21 0 57 27 57 43 0 3 -7 13 -16 21
-17 17 -104 23 -104 7z m86 -22 c7 -12 -15 -31 -31 -26 -5 2 -11 11 -13 20 -4
19 32 24 44 6z"/>
<path d="M1770 480 c0 -11 -5 -20 -10 -20 -6 0 -8 -11 -5 -25 3 -14 7 -37 10
-51 5 -20 11 -25 26 -21 10 3 33 0 49 -6 25 -10 33 -9 47 6 17 17 16 19 -12
42 -23 19 -26 24 -12 25 9 0 17 -5 17 -11 0 -5 5 -7 10 -4 6 3 10 14 10 24 0
13 -8 18 -30 19 -16 0 -32 -3 -35 -8 -10 -16 -43 12 -37 32 3 12 -1 18 -12 18
-9 0 -16 -8 -16 -20z m50 -50 c0 -5 12 -21 27 -35 31 -28 13 -36 -23 -10 -12
8 -24 11 -28 8 -3 -3 -6 6 -6 20 0 17 5 27 15 27 8 0 15 -4 15 -10z"/>
<path d="M2430 481 c0 -12 -4 -21 -9 -21 -5 0 -7 -19 -4 -42 4 -30 2 -40 -5
-33 -6 6 -12 24 -14 40 -3 26 -7 30 -33 30 -23 0 -30 -5 -31 -20 -1 -11 -4
-28 -8 -37 -13 -29 2 -37 72 -35 56 2 67 5 70 21 3 11 0 16 -7 12 -7 -5 -11 2
-11 18 0 13 6 27 13 29 9 4 9 7 -1 15 -7 5 -12 15 -10 22 2 7 -3 15 -9 17 -8
3 -13 -4 -13 -16z m-60 -51 c0 -5 -4 -10 -10 -10 -5 0 -10 5 -10 10 0 6 5 10
10 10 6 0 10 -4 10 -10z m0 -39 c0 -6 -4 -13 -10 -16 -5 -3 -10 1 -10 9 0 9 5
16 10 16 6 0 10 -4 10 -9z"/>
<path d="M2540 490 c0 -5 5 -10 10 -10 6 0 10 -22 10 -50 0 -27 -4 -50 -10
-50 -5 0 -10 -4 -10 -10 0 -5 11 -10 24 -10 14 0 28 5 31 10 3 6 1 10 -5 10
-7 0 -11 18 -10 48 1 26 1 53 1 60 -1 14 -41 17 -41 2z"/>
<path d="M2610 460 c0 -39 1 -39 30 -33 26 5 30 2 30 -15 0 -27 -17 -37 -36
-21 -19 16 -30 4 -14 -16 15 -18 51 -20 68 -3 27 27 7 78 -30 78 -10 0 -18 7
-18 15 0 18 5 19 30 3 22 -14 35 -6 27 17 -4 10 -20 15 -47 15 l-40 0 0 -40z"/>
<path d="M1070 441 c-22 -41 23 -97 59 -74 18 12 24 62 9 81 -16 19 -56 14
-68 -7z m47 -7 c-3 -3 -12 -4 -19 -1 -8 3 -5 6 6 6 11 1 17 -2 13 -5z m18 -34
c-3 -5 -15 -10 -26 -10 -10 0 -19 5 -19 10 0 6 12 10 26 10 14 0 23 -4 19 -10z"/>
<path d="M1150 451 c0 -6 5 -11 11 -11 8 0 10 -14 6 -40 -4 -33 -2 -40 12 -40
25 0 33 11 20 26 -17 21 -3 47 22 39 17 -6 20 -3 17 12 -2 13 -14 19 -46 21
-25 2 -42 -1 -42 -7z"/>
<path d="M1515 437 c-19 -30 -11 -55 23 -64 19 -4 30 -1 44 17 16 20 17 25 5
44 -21 31 -53 32 -72 3z m50 -23 c0 -10 -8 -20 -17 -22 -18 -3 -26 27 -11 42
12 11 28 0 28 -20z"/>
<path d="M1600 446 c6 -8 10 -32 8 -53 -3 -41 -7 -39 73 -35 26 2 29 4 19 16
-13 17 -10 56 5 59 6 1 11 -17 13 -40 2 -27 8 -43 16 -43 19 0 27 12 17 24 -5
6 -11 27 -13 46 -3 33 -5 35 -45 37 l-41 3 5 -39 c3 -23 1 -41 -6 -45 -7 -5
-11 7 -11 38 0 43 -2 46 -26 46 -22 0 -24 -2 -14 -14z"/>
<path d="M1982 448 c-26 -26 -7 -98 26 -98 22 0 42 19 42 38 0 12 -3 12 -15 2
-18 -15 -45 -6 -45 13 0 23 24 39 38 25 17 -17 27 -2 12 17 -15 18 -41 20 -58
3z"/>
<path d="M2081 451 c-8 -5 -11 -16 -8 -24 3 -8 1 -19 -5 -25 -6 -6 -8 -18 -5
-27 5 -12 17 -15 52 -12 44 3 46 2 40 -20 -4 -16 -1 -23 10 -23 8 0 17 11 21
24 4 17 11 22 24 19 23 -6 42 27 38 65 -3 25 -7 27 -51 30 -47 3 -48 3 -41
-22 3 -14 3 -34 -2 -43 -6 -14 -9 -8 -13 22 -6 42 -30 56 -60 36z m39 -21 c0
-5 -7 -10 -15 -10 -8 0 -15 5 -15 10 0 6 7 10 15 10 8 0 15 -4 15 -10z m107
-6 c7 -18 -17 -38 -31 -24 -11 11 -1 40 14 40 6 0 13 -7 17 -16z m-117 -39
c-7 -9 -15 -13 -17 -11 -7 7 7 26 19 26 6 0 6 -6 -2 -15z"/>
<path d="M2715 381 c-6 -11 9 -23 19 -14 9 9 7 23 -3 23 -6 0 -12 -4 -16 -9z"/>
</g>
</svg>
